<mxfile host="app.diagrams.net" agent="Mozilla/5.0 (Windows NT 10.0; Win64; x64) AppleWebKit/537.36 (KHTML, like Gecko) Chrome/127.0.0.0 Safari/537.36 Edg/127.0.0.0" version="24.7.7">
  <diagram name="Page-1" id="LHa6aY6m-8MLzELDTGbR">
    <mxGraphModel dx="1678" dy="931" grid="1" gridSize="10" guides="1" tooltips="1" connect="1" arrows="1" fold="1" page="1" pageScale="1" pageWidth="827" pageHeight="1169" math="0" shadow="0">
      <root>
        <mxCell id="0" />
        <mxCell id="1" parent="0" />
        <mxCell id="uzlXRfIgHOG-nUSrqmDE-1" value="Serveur Spring Boot" style="rounded=0;whiteSpace=wrap;html=1;fillColor=#dae8fc;strokeColor=#6c8ebf;fontStyle=1" vertex="1" parent="1">
          <mxGeometry x="160" y="119" width="280" height="40" as="geometry" />
        </mxCell>
        <mxCell id="uzlXRfIgHOG-nUSrqmDE-8" style="edgeStyle=orthogonalEdgeStyle;rounded=0;orthogonalLoop=1;jettySize=auto;html=1;fillColor=#dae8fc;strokeColor=#6c8ebf;" edge="1" parent="1" target="uzlXRfIgHOG-nUSrqmDE-3">
          <mxGeometry relative="1" as="geometry">
            <mxPoint x="270" y="230" as="sourcePoint" />
            <Array as="points">
              <mxPoint x="270" y="230" />
              <mxPoint x="220" y="230" />
            </Array>
          </mxGeometry>
        </mxCell>
        <mxCell id="uzlXRfIgHOG-nUSrqmDE-2" value="Client" style="shape=umlActor;verticalLabelPosition=bottom;verticalAlign=top;html=1;outlineConnect=0;" vertex="1" parent="1">
          <mxGeometry x="285" y="190" width="30" height="60" as="geometry" />
        </mxCell>
        <mxCell id="uzlXRfIgHOG-nUSrqmDE-3" value="Requet" style="rounded=0;whiteSpace=wrap;html=1;fillColor=#dae8fc;strokeColor=#6c8ebf;" vertex="1" parent="1">
          <mxGeometry x="160" y="290" width="120" height="30" as="geometry" />
        </mxCell>
        <mxCell id="uzlXRfIgHOG-nUSrqmDE-15" style="edgeStyle=orthogonalEdgeStyle;rounded=0;orthogonalLoop=1;jettySize=auto;html=1;exitX=0.5;exitY=0;exitDx=0;exitDy=0;fillColor=#d5e8d4;strokeColor=#82b366;" edge="1" parent="1" source="uzlXRfIgHOG-nUSrqmDE-4">
          <mxGeometry relative="1" as="geometry">
            <mxPoint x="330" y="230" as="targetPoint" />
            <Array as="points">
              <mxPoint x="380" y="230" />
              <mxPoint x="330" y="230" />
            </Array>
          </mxGeometry>
        </mxCell>
        <mxCell id="uzlXRfIgHOG-nUSrqmDE-4" value="Reponse" style="rounded=0;whiteSpace=wrap;html=1;fillColor=#d5e8d4;strokeColor=#82b366;" vertex="1" parent="1">
          <mxGeometry x="320" y="290" width="120" height="30" as="geometry" />
        </mxCell>
        <mxCell id="uzlXRfIgHOG-nUSrqmDE-10" style="edgeStyle=orthogonalEdgeStyle;rounded=0;orthogonalLoop=1;jettySize=auto;html=1;exitX=0.25;exitY=1;exitDx=0;exitDy=0;entryX=0.212;entryY=-0.031;entryDx=0;entryDy=0;entryPerimeter=0;fillColor=#dae8fc;strokeColor=#6c8ebf;" edge="1" parent="1" source="uzlXRfIgHOG-nUSrqmDE-5" target="uzlXRfIgHOG-nUSrqmDE-6">
          <mxGeometry relative="1" as="geometry">
            <mxPoint x="210" y="430" as="targetPoint" />
            <Array as="points">
              <mxPoint x="220" y="400" />
              <mxPoint x="220" y="430" />
              <mxPoint x="219" y="430" />
            </Array>
          </mxGeometry>
        </mxCell>
        <mxCell id="uzlXRfIgHOG-nUSrqmDE-5" value="API Layer / Controller Layer" style="rounded=0;whiteSpace=wrap;html=1;" vertex="1" parent="1">
          <mxGeometry x="160" y="360" width="280" height="40" as="geometry" />
        </mxCell>
        <mxCell id="uzlXRfIgHOG-nUSrqmDE-11" style="edgeStyle=orthogonalEdgeStyle;rounded=0;orthogonalLoop=1;jettySize=auto;html=1;exitX=0.214;exitY=1.005;exitDx=0;exitDy=0;entryX=0.216;entryY=0;entryDx=0;entryDy=0;exitPerimeter=0;entryPerimeter=0;fillColor=#dae8fc;strokeColor=#6c8ebf;" edge="1" parent="1" source="uzlXRfIgHOG-nUSrqmDE-6" target="uzlXRfIgHOG-nUSrqmDE-7">
          <mxGeometry relative="1" as="geometry" />
        </mxCell>
        <mxCell id="uzlXRfIgHOG-nUSrqmDE-13" style="edgeStyle=orthogonalEdgeStyle;rounded=0;orthogonalLoop=1;jettySize=auto;html=1;exitX=0.789;exitY=0.015;exitDx=0;exitDy=0;entryX=0.787;entryY=1.08;entryDx=0;entryDy=0;entryPerimeter=0;exitPerimeter=0;fillColor=#d5e8d4;strokeColor=#82b366;" edge="1" parent="1" source="uzlXRfIgHOG-nUSrqmDE-6" target="uzlXRfIgHOG-nUSrqmDE-5">
          <mxGeometry relative="1" as="geometry" />
        </mxCell>
        <mxCell id="uzlXRfIgHOG-nUSrqmDE-6" value="Service Layer" style="rounded=0;whiteSpace=wrap;html=1;" vertex="1" parent="1">
          <mxGeometry x="160" y="440" width="280" height="40" as="geometry" />
        </mxCell>
        <mxCell id="uzlXRfIgHOG-nUSrqmDE-14" style="edgeStyle=orthogonalEdgeStyle;rounded=0;orthogonalLoop=1;jettySize=auto;html=1;exitX=0.777;exitY=0;exitDx=0;exitDy=0;entryX=0.781;entryY=1.02;entryDx=0;entryDy=0;entryPerimeter=0;exitPerimeter=0;fillColor=#d5e8d4;strokeColor=#82b366;" edge="1" parent="1" source="uzlXRfIgHOG-nUSrqmDE-7" target="uzlXRfIgHOG-nUSrqmDE-6">
          <mxGeometry relative="1" as="geometry" />
        </mxCell>
        <mxCell id="uzlXRfIgHOG-nUSrqmDE-18" style="edgeStyle=orthogonalEdgeStyle;rounded=0;orthogonalLoop=1;jettySize=auto;html=1;exitX=0.25;exitY=1;exitDx=0;exitDy=0;fillColor=#dae8fc;strokeColor=#6c8ebf;" edge="1" parent="1" source="uzlXRfIgHOG-nUSrqmDE-7">
          <mxGeometry relative="1" as="geometry">
            <mxPoint x="260" y="630" as="targetPoint" />
            <Array as="points">
              <mxPoint x="220" y="560" />
              <mxPoint x="220" y="630" />
              <mxPoint x="260" y="630" />
            </Array>
          </mxGeometry>
        </mxCell>
        <mxCell id="uzlXRfIgHOG-nUSrqmDE-7" value="Data Access Layer" style="rounded=0;whiteSpace=wrap;html=1;" vertex="1" parent="1">
          <mxGeometry x="160" y="520" width="280" height="40" as="geometry" />
        </mxCell>
        <mxCell id="uzlXRfIgHOG-nUSrqmDE-9" style="edgeStyle=orthogonalEdgeStyle;rounded=0;orthogonalLoop=1;jettySize=auto;html=1;exitX=0.5;exitY=1;exitDx=0;exitDy=0;fillColor=#dae8fc;strokeColor=#6c8ebf;" edge="1" parent="1" source="uzlXRfIgHOG-nUSrqmDE-3">
          <mxGeometry relative="1" as="geometry">
            <mxPoint x="220" y="360" as="targetPoint" />
          </mxGeometry>
        </mxCell>
        <mxCell id="uzlXRfIgHOG-nUSrqmDE-12" style="edgeStyle=orthogonalEdgeStyle;rounded=0;orthogonalLoop=1;jettySize=auto;html=1;exitX=0.786;exitY=0.02;exitDx=0;exitDy=0;entryX=0.5;entryY=1;entryDx=0;entryDy=0;exitPerimeter=0;fillColor=#d5e8d4;strokeColor=#82b366;" edge="1" parent="1" source="uzlXRfIgHOG-nUSrqmDE-5" target="uzlXRfIgHOG-nUSrqmDE-4">
          <mxGeometry relative="1" as="geometry" />
        </mxCell>
        <mxCell id="uzlXRfIgHOG-nUSrqmDE-17" value="" style="shape=image;verticalLabelPosition=bottom;labelBackgroundColor=default;verticalAlign=top;aspect=fixed;imageAspect=0;image=data:image/svg+xml,PHN2ZyB4bWxucz0iaHR0cDovL3d3dy53My5vcmcvMjAwMC9zdmciIHByZXNlcnZlQXNwZWN0UmF0aW89InhNaWRZTWlkIiBoZWlnaHQ9IjUxMiIgd2lkdGg9IjM1Mi45OTgwMTYzNTc0MjE5IiB2aWV3Qm94PSIxLjAwMDk5OTQ1MDY4MzU5MzggMCAzNTIuOTk4MDE2MzU3NDIxOSA1MTIiPiYjeGE7ICA8cGF0aCBkPSJNMjk5LjU5NiA0OTIuMjIzQzI2Ni44NTYgNTA0Ljk3NiAyMjMuNDk2IDUxMiAxNzcuNSA1MTJjLTQ1Ljk5NiAwLTg5LjM1Ny03LjAyNC0xMjIuMDk1LTE5Ljc3Ny0zNS4wODMtMTMuNjY3LTU0LjQwNC0zMi43NjYtNTQuNDA0LTUzLjc4VjczLjU1N2MwLTIxLjAxNCAxOS4zMjEtNDAuMTEzIDU0LjQwNC01My43OEM4OC4xNDQgNy4wMjQgMTMxLjUwNCAwIDE3Ny41IDBjNDUuOTk2IDAgODkuMzU2IDcuMDI0IDEyMi4wOTYgMTkuNzc4IDM1LjA2OSAxMy42NjEgNTQuMzg3IDMyLjc1MSA1NC40MDIgNTMuNzU2IDAgLjAwNy4wMDEuMDE0LjAwMS4wMjN2MzY0Ljg4NmMwIDIxLjAxNC0xOS4zMjEgNDAuMTEzLTU0LjQwMyA1My43OFpNMjkzLjg3MiAzNC40NEMyNjIuOTE0IDIyLjM4MSAyMjEuNTg1IDE1LjczOSAxNzcuNSAxNS43MzljLTQ0LjA4NSAwLTg1LjQxNCA2LjY0Mi0xMTYuMzcyIDE4LjcwMi0yOC4yIDEwLjk4NC00NC4zNzQgMjUuMjQzLTQ0LjM3NCAzOS4xMTYgMCAxMy44NzMgMTYuMTc0IDI4LjEzMSA0NC4zNzQgMzkuMTE2IDMwLjk1OCAxMi4wNTggNzIuMjg3IDE4LjcgMTE2LjM3MiAxOC43IDE2LjUzMiAwIDMyLjY3NS0uOTM0IDQ4LjAzMS0yLjczOCAyNS41OTItMy4wMDUgNDguOTkyLTguNDI1IDY4LjM0MS0xNS45NjMgMjguMTk5LTEwLjk4NSA0NC4zNzItMjUuMjQzIDQ0LjM3Mi0zOS4xMTYgMC0xMy44NzMtMTYuMTcyLTI4LjEzMS00NC4zNzItMzkuMTE2Wm00NC4zNzUgNzAuMzkzYy0uMDE1LjAxNC0uMDMxLjAyNy0uMDQ2LjA0MS0uMTMzLjEyMi0uMjc1LjI0NC0uNDEuMzY3LTEwLjkxMiA5LjkxLTI0LjU1NCAxNi43ODEtMzguMTk0IDIyLjA5NS0yMS40ODUgOC4zNjktNDcuNTQ0IDE0LjI3LTc1LjkyMSAxNy4zMzktMTQuODY1IDEuNjA4LTMwLjM2NCAyLjQzOC00Ni4xNzUgMi40MzgtNDUuOTk2IDAtODkuMzU3LTcuMDI0LTEyMi4wOTUtMTkuNzc3LTEzLjg5Ni01LjQxMy0yNy41ODctMTIuMjY2LTM4LjYxNC0yMi40NjktLjAxMi0uMDExLS4wMjQtLjAyMS0uMDM2LS4wMzJ2OTAuMzVjMCAxMy44NzIgMTYuMTczIDI4LjEzIDQ0LjM3MyAzOS4xMTUgMjYuMTIxIDEwLjE3NiA1OS42MjQgMTYuNDk1IDk1LjkzOCAxOC4yMjEgNi44MDUuMzI1IDEzLjYyLjQ4MiAyMC40MzQuNDgyIDQ4Ljc0MyAwIDEwNi4xODQtMy41ODIgMTQ2LjEzMi0zNC42OTIgNS4zMDctNC4xMzMgMTAuMjY0LTkuMDI0IDEyLjkzNi0xNS4zMDUgMS4wNDktMi40NiAxLjY3OC01LjEzOSAxLjY3OC03Ljgydi05MC4zNTNabS4wMDEgMTIxLjYyN2MtLjAxMi4wMDktLjAyNC4wMi0uMDM0LjAyOS0yLjUyOCAyLjMxOS01LjIwNCA0LjQ3NS03Ljk5OCA2LjQ2OS0xNy4zODMgMTIuNDEtMzguMjQ3IDE5LjY5NS01OC43ODggMjQuOTIyLTE2Ljk5NCA0LjMyNC0zNS43MDEgNy40MjQtNTUuNDA2IDkuMTc3LS4xNzIuMDE0LS4zNDMuMDMyLS41MTUuMDQ3LTYuNDg1LjU2OC0xMy4wNzcuOTg3LTE5Ljc0OSAxLjI2MS02LjAyNi4yNDgtMTIuMTE3LjM3Ny0xOC4yNTYuMzc3LTQ1Ljk5NiAwLTg5LjM1Ny03LjAyNC0xMjIuMDk1LTE5Ljc3Ny0xMy42NTItNS4zMTYtMjcuMjE3LTEyLjE0My0zOC4xMzktMjIuMDQ1LS4xNTUtLjE0MS0uMzE3LS4yNzktLjQ3MS0uNDIxLS4wMTMtLjAxMi0uMDI2LS4wMjQtLjA0LS4wMzZ2OTAuMzUyYzAgMTMuODczIDE2LjE3MyAyOC4xMzEgNDQuMzczIDM5LjExNiAzMC45NTggMTIuMDU5IDcyLjI4NyAxOC43MDEgMTE2LjM3MiAxOC43MDEgMTEuODgxIDAgMjMuNTU5LS40ODcgMzQuODktMS40MjkuODEzLS4wNjYgMS42MjUtLjEzNyAyLjQzMy0uMjA4IDI5Ljc2Ny0yLjY1NSA1Ny4wMzItOC40ODcgNzkuMDQ5LTE3LjA2NCAxMi4wMjgtNC42ODUgMjEuODU5LTkuOTY3IDI5LjE4OS0xNS41NTkgNi4xNzEtNC43MDggMTIuMjUtMTAuNjcxIDE0LjQzNi0xOC4zNDQuMDE1LS4wNTIuMDI0LS4xMDQuMDM5LS4xNTUuNDU4LTEuNjQ4LjcxLTMuMzQ4LjcxLTUuMDU5VjIyNi40NlptLjAwMiAxMjEuNjI4Yy0uMDEzLjAxMi0uMDI1LjAyMi0uMDM4LjAzNC0uMTcyLjE1OS0uMzU2LjMxNy0uNTMxLjQ3NS0yLjU1MiAyLjMwOS01LjI1NSA0LjQ0NS04LjA3MyA2LjQyLTkuMjYxIDYuNDg3LTE5LjQ5MiAxMS40OC0zMC4wMSAxNS41NzctMjguNTA4IDExLjEwMy02NS4wNyAxNy44NjEtMTA0LjQxMSAxOS40MjMtNS44MzkuMjMyLTExLjczOC4zNTItMTcuNjgzLjM1Mi00NS45OTYgMC04OS4zNTctNy4wMjQtMTIyLjA5NS0xOS43NzctMTMuNjg3LTUuMzMtMjcuMTI3LTEyLjA3MS0zOC4wODYtMjEuOTk3LS4xNzQtLjE1Ny0uMzU2LS4zMTQtLjUyOC0uNDcyLS4wMTMtLjAxMi0uMDI1LS4wMjItLjAzOC0uMDM0djkwLjM1MmMwIDEzLjg3MiAxNi4xNzMgMjguMTMgNDQuMzczIDM5LjExNSAzMC45NTkgMTIuMDYgNzIuMjg2IDE4LjcwMiAxMTYuMzcyIDE4LjcwMnM4NS40MTQtNi42NDIgMTE2LjM3My0xOC43MDJjMjguMTk5LTEwLjk4NSA0NC4zNzItMjUuMjQxIDQ0LjM3Mi0zOS4xMTVoLjAwM3YtOTAuMzUzWm0tMjguMTc0IDgwLjg4M2MtNy45NDkgMC0xNC4zOTMtNi40MzgtMTQuMzkzLTE0LjM4MSAwLTcuOTQyIDYuNDQ0LTE0LjM4MSAxNC4zOTMtMTQuMzgxIDcuOTUgMCAxNC4zOTQgNi40MzkgMTQuMzk0IDE0LjM4MSAwIDcuOTQzLTYuNDQ0IDE0LjM4MS0xNC4zOTQgMTQuMzgxWm0tNDkuOTU2IDE1LjA0N2MtNy45NDkgMC0xNC4zOTMtNi40MzgtMTQuMzkzLTE0LjM4MSAwLTcuOTQyIDYuNDQ0LTE0LjM4MSAxNC4zOTMtMTQuMzgxIDcuOTQ5IDAgMTQuMzk0IDYuNDM5IDE0LjM5NCAxNC4zODEgMCA3Ljk0My02LjQ0NSAxNC4zODEtMTQuMzk0IDE0LjM4MVptLTUzLjAxMiA4LjIzN2MtNy45NDkgMC0xNC4zOTMtNi40MzgtMTQuMzkzLTE0LjM4MSAwLTcuOTQyIDYuNDQ0LTE0LjM4MSAxNC4zOTMtMTQuMzgxIDcuOTQ5IDAgMTQuMzkzIDYuNDM5IDE0LjM5MyAxNC4zODEgMCA3Ljk0My02LjQ0NCAxNC4zODEtMTQuMzkzIDE0LjM4MVptMTAyLjk2OC0xNDMuODc3Yy03Ljk0OSAwLTE0LjM5My02LjQzOS0xNC4zOTMtMTQuMzgxIDAtNy45NDMgNi40NDQtMTQuMzgxIDE0LjM5My0xNC4zODEgNy45NSAwIDE0LjM5NCA2LjQzOCAxNC4zOTQgMTQuMzgxIDAgNy45NDItNi40NDQgMTQuMzgxLTE0LjM5NCAxNC4zODFabS00OS45NTYgMTUuMDU3Yy03Ljk0OSAwLTE0LjM5My02LjQzOS0xNC4zOTMtMTQuMzgxIDAtNy45NDMgNi40NDQtMTQuMzgxIDE0LjM5My0xNC4zODEgNy45NDkgMCAxNC4zOTQgNi40MzggMTQuMzk0IDE0LjM4MSAwIDcuOTQyLTYuNDQ1IDE0LjM4MS0xNC4zOTQgMTQuMzgxWm0tNTMuMDEyIDguMjM3Yy03Ljk0OSAwLTE0LjM5My02LjQzOS0xNC4zOTMtMTQuMzgxIDAtNy45NDMgNi40NDQtMTQuMzgxIDE0LjM5My0xNC4zODEgNy45NDkgMCAxNC4zOTMgNi40MzggMTQuMzkzIDE0LjM4MSAwIDcuOTQyLTYuNDQ0IDE0LjM4MS0xNC4zOTMgMTQuMzgxWm0xMDIuOTY4LTE0NS45ODZjLTcuOTQ5IDAtMTQuMzkzLTYuNDM4LTE0LjM5My0xNC4zODEgMC03Ljk0MiA2LjQ0NC0xNC4zODEgMTQuMzkzLTE0LjM4MSA3Ljk1IDAgMTQuMzk0IDYuNDM5IDE0LjM5NCAxNC4zODEgMCA3Ljk0My02LjQ0NCAxNC4zODEtMTQuMzk0IDE0LjM4MVptLTQ5Ljk1NiAxNS4wNTdjLTcuOTQ5IDAtMTQuMzkzLTYuNDM4LTE0LjM5My0xNC4zODEgMC03Ljk0MiA2LjQ0NC0xNC4zODEgMTQuMzkzLTE0LjM4MSA3Ljk0OSAwIDE0LjM5NCA2LjQzOSAxNC4zOTQgMTQuMzgxIDAgNy45NDMtNi40NDUgMTQuMzgxLTE0LjM5NCAxNC4zODFabS01My4wMTIgOC4yMzdjLTcuOTQ5IDAtMTQuMzkzLTYuNDM4LTE0LjM5My0xNC4zODEgMC03Ljk0MiA2LjQ0NC0xNC4zODEgMTQuMzkzLTE0LjM4MSA3Ljk0OSAwIDE0LjM5MyA2LjQzOSAxNC4zOTMgMTQuMzgxIDAgNy45NDMtNi40NDQgMTQuMzgxLTE0LjM5MyAxNC4zODFaIiBmaWxsLXJ1bGU9ImV2ZW5vZGQiLz4mI3hhOzwvc3ZnPg==;" vertex="1" parent="1">
          <mxGeometry x="275.86" y="600" width="48.27" height="70" as="geometry" />
        </mxCell>
        <mxCell id="uzlXRfIgHOG-nUSrqmDE-19" style="edgeStyle=orthogonalEdgeStyle;rounded=0;orthogonalLoop=1;jettySize=auto;html=1;entryX=0.785;entryY=1.086;entryDx=0;entryDy=0;entryPerimeter=0;fillColor=#d5e8d4;strokeColor=#82b366;" edge="1" parent="1" target="uzlXRfIgHOG-nUSrqmDE-7">
          <mxGeometry relative="1" as="geometry">
            <mxPoint x="340" y="630" as="sourcePoint" />
            <mxPoint x="390" y="580" as="targetPoint" />
            <Array as="points">
              <mxPoint x="340" y="630" />
              <mxPoint x="380" y="630" />
            </Array>
          </mxGeometry>
        </mxCell>
        <mxCell id="uzlXRfIgHOG-nUSrqmDE-20" value="" style="shape=image;verticalLabelPosition=bottom;labelBackgroundColor=default;verticalAlign=top;aspect=fixed;imageAspect=0;image=data:image/svg+xml,PHN2ZyB4bWxucz0iaHR0cDovL3d3dy53My5vcmcvMjAwMC9zdmciIHhtbG5zOnhsaW5rPSJodHRwOi8vd3d3LnczLm9yZy8xOTk5L3hsaW5rIiB2aWV3Qm94PSIwIDAgMzkxIDIwMiIgaGVpZ2h0PSIyMDJwdCIgd2lkdGg9IjM5MXB0Ij4mI3hhOyA8ZyBzdHlsZT0iZmlsbDojMDA2MThhOyBmaWxsLXJ1bGU6bm9uemVybzsgc3Ryb2tlOm5vbmU7IHN0cm9rZS13aWR0aDowLjg3MDg4OyBzdHJva2UtbGluZWNhcDpidXR0OyBzdHJva2UtbGluZWpvaW46bWl0ZXI7IHN0cm9rZS1kYXNoYXJyYXk6bm9uZTsiIHRyYW5zZm9ybT0idHJhbnNsYXRlKDAuNzM4MjgxLCAxMjEuNTkzKSI+JiN4YTsgIDxwYXRoIGQ9Ik0wIDYyLjIzNSBDMCA2Mi4yMzUgMTIuODQxOCA2Mi4yMzUgMTIuODQxOCA2Mi4yMzUgQzEyLjg0MTggNjIuMjM1IDEyLjg0MTggMTEuNTI0IDEyLjg0MTggMTEuNTI0IEMxMi44NDE4IDExLjUyNCAzMi43MjI2IDU1LjczMiAzMi43MjI2IDU1LjczMiBDMzUuMDY4MyA2MS4wODMgMzguMjc5MyA2Mi45NzYgNDQuNTc2MiA2Mi45NzYgQzUwLjg3NCA2Mi45NzYgNTMuOTYwOSA2MS4wODMgNTYuMzA3NiA1NS43MzIgQzU2LjMwNzYgNTUuNzMyIDc2LjE4NzUgMTEuNTI0IDc2LjE4NzUgMTEuNTI0IEM3Ni4xODc1IDExLjUyNCA3Ni4xODc1IDYyLjIzNSA3Ni4xODc1IDYyLjIzNSBDNzYuMTg3NSA2Mi4yMzUgODkuMDMwMyA2Mi4yMzUgODkuMDMwMyA2Mi4yMzUgQzg5LjAzMDMgNjIuMjM1IDg5LjAzMDMgMTEuNjA3IDg5LjAzMDMgMTEuNjA3IEM4OS4wMzAzIDYuNjY4IDg3LjA1MzcgNC4yOCA4Mi45Nzk1IDMuMDQ2IEM3My4yMjQ2IDAgNjYuNjc5NyAyLjYzNCA2My43MTU4IDkuMjIgQzYzLjcxNTggOS4yMiA0NC4yMDYgNTIuODUgNDQuMjA2IDUyLjg1IEM0NC4yMDYgNTIuODUgMjUuMzEzNSA5LjIyIDI1LjMxMzUgOS4yMiBDMjIuNDczNiAyLjYzNCAxNS44MDU2IDAgNi4wNTA3OCAzLjA0NiBDMS45NzU1OSA0LjI4IDAgNi42NjggMCAxMS42MDcgQzAgMTEuNjA3IDAgNjIuMjM1IDAgNjIuMjM1IFoiLz4mI3hhOyA8L2c+JiN4YTsgPGcgc3R5bGU9ImZpbGw6IzAwNjE4YTsgZmlsbC1ydWxlOm5vbnplcm87IHN0cm9rZTpub25lOyBzdHJva2Utd2lkdGg6MC44NzA4ODsgc3Ryb2tlLWxpbmVjYXA6YnV0dDsgc3Ryb2tlLWxpbmVqb2luOm1pdGVyOyBzdHJva2UtZGFzaGFycmF5Om5vbmU7IiB0cmFuc2Zvcm09InRyYW5zbGF0ZSgxMDAuNDQ0LCAxNDIuNDE2KSI+JiN4YTsgIDxwYXRoIGQ9Ik0wLjAwMiAwLjEzNiBDMC4wMDIgMC4xMzYgMTIuODQgMC4xMzYgMTIuODQgMC4xMzYgQzEyLjg0IDAuMTM2IDEyLjg0IDI4LjA3NCAxMi44NCAyOC4wNzQgQzEyLjcyIDI5LjU5MiAxMy4zMjcgMzMuMTU0IDIwLjM2MiAzMy4yNjUgQzIzLjk1MSAzMy4zMjEgNDguMDYyIDMzLjI2NSA0OC4yODcgMzMuMjY1IEM0OC4yODcgMzMuMjY1IDQ4LjI4NyAwIDQ4LjI4NyAwIEM0OC4yODcgMCA2MS4xNTUgMCA2MS4xNTUgMCBDNjEuMjE0IDAgNjEuMTQyIDQ1LjM2NCA2MS4xNDMgNDUuNTU3IEM2MS4yMTQgNTYuNzQ1IDQ3LjI2MSA1OS4xNzUgNDAuODMgNTkuMzYzIEM0MC44MyA1OS4zNjMgMC4yODEgNTkuMzYzIDAuMjgxIDU5LjM2MyBDMC4yODEgNTkuMzYzIDAuMjgxIDUwLjcyNCAwLjI4MSA1MC43MjQgQzAuMzUyIDUwLjcyNCA0MC44IDUwLjczMiA0MC45MDIgNTAuNzIyIEM0OS4xNjcgNDkuODQ5IDQ4LjE5MSA0NS43NDEgNDguMTkgNDQuMzU4IEM0OC4xOSA0NC4zNTggNDguMTkgNDAuOTkgNDguMTkgNDAuOTkgQzQ4LjE5IDQwLjk5IDIwLjg5NSA0MC45OSAyMC44OTUgNDAuOTkgQzguMTk2IDQwLjg3MyAwLjEwOSAzNS4zMzEgMC4wMDkgMjguOTU1IEMwIDI4LjM2NCAwLjI4MyAwLjQxNSAwLjAwMiAwLjEzNiBaIi8+JiN4YTsgPC9nPiYjeGE7IDxnIHN0eWxlPSJmaWxsOiNlNDhlMDA7IGZpbGwtcnVsZTpub256ZXJvOyBzdHJva2U6bm9uZTsgc3Ryb2tlLXdpZHRoOjAuODcwODg7IHN0cm9rZS1saW5lY2FwOmJ1dHQ7IHN0cm9rZS1saW5lam9pbjptaXRlcjsgc3Ryb2tlLWRhc2hhcnJheTpub25lOyIgdHJhbnNmb3JtPSJ0cmFuc2xhdGUoMTcxLjQ5NiwgMTI0LjU1NykiPiYjeGE7ICA8cGF0aCBkPSJNMCA1OS4yNzEgQzAgNTkuMjcxIDM2LjkyIDU5LjI3MSAzNi45MiA1OS4yNzEgQzQxLjI0MiA1OS4yNzEgNDUuNDQxIDU4LjM2NiA0OC43NzUgNTYuODAxIEM1NC4zMzEgNTQuMjUgNTcuMDQ4IDUwLjc5MyA1Ny4wNDggNDYuMjY0IEM1Ny4wNDggNDYuMjY0IDU3LjA0OCAzNi44OCA1Ny4wNDggMzYuODggQzU3LjA0OCAzMy4xNzUgNTMuOTYxIDI5LjcxNyA0Ny45MSAyNy40MTMgQzQ0LjY5OSAyNi4xNzcgNDAuNzQ4IDI1LjUxOSAzNi45MiAyNS41MTkgQzM2LjkyIDI1LjUxOSAyMS4zNjEgMjUuNTE5IDIxLjM2MSAyNS41MTkgQzE2LjE3NiAyNS41MTkgMTMuNzA2IDIzLjk1NSAxMy4wODkgMjAuNDk4IEMxMi45NjUgMjAuMDg2IDEyLjk2NSAxOS43NTYgMTIuOTY1IDE5LjM0NSBDMTIuOTY1IDE5LjM0NSAxMi45NjUgMTMuNTAxIDEyLjk2NSAxMy41MDEgQzEyLjk2NSAxMy4xNzEgMTIuOTY1IDEyLjg0MSAxMy4wODkgMTIuNDMgQzEzLjcwNiA5Ljc5NiAxNS4wNjUgOS4wNTQgMTkuNjMzIDguNjQzIEMyMC4wMDQgOC42NDMgMjAuNDk3IDguNTYgMjAuODY4IDguNTYgQzIwLjg2OCA4LjU2IDU3LjU0MiA4LjU2IDU3LjU0MiA4LjU2IEM1Ny41NDIgOC41NiA1Ny41NDIgMCA1Ny41NDIgMCBDNTcuNTQyIDAgMjEuNDg1IDAgMjEuNDg1IDAgQzE2LjI5OSAwIDEzLjU4MiAwLjMyOSAxMS4xMTMgMS4wNjkgQzMuNDU3IDMuNDU3IDAuMTIzIDcuMjQ0IDAuMTIzIDEzLjgzIEMwLjEyMyAxMy44MyAwLjEyMyAyMS4zMjEgMC4xMjMgMjEuMzIxIEMwLjEyMyAyNy4wODQgNi42NjggMzIuMDIzIDE3LjY1NyAzMy4xNzUgQzE4Ljg5MyAzMy4yNTcgMjAuMTI3IDMzLjMzOSAyMS4zNjEgMzMuMzM5IEMyMS4zNjEgMzMuMzM5IDM0LjY5NyAzMy4zMzkgMzQuNjk3IDMzLjMzOSBDMzUuMTkyIDMzLjMzOSAzNS42ODYgMzMuMzM5IDM2LjA1NiAzMy40MjIgQzQwLjEzMSAzMy43NTIgNDEuODU5IDM0LjQ5MiA0My4wOTUgMzUuOTc0IEM0My44MzUgMzYuNzE0IDQ0LjA4MiAzNy40NTYgNDQuMDgyIDM4LjI3OSBDNDQuMDgyIDM4LjI3OSA0NC4wODIgNDUuNzcgNDQuMDgyIDQ1Ljc3IEM0NC4wODIgNDYuNjc2IDQzLjQ2NSA0Ny44MjkgNDIuMjMxIDQ4LjgxNiBDNDEuMTE5IDQ5LjgwNCAzOS4yNjcgNTAuNDYzIDM2Ljc5NyA1MC42MjggQzM2LjMwMyA1MC42MjggMzUuOTMzIDUwLjcxIDM1LjQzOSA1MC43MSBDMzUuNDM5IDUwLjcxIDAgNTAuNzEgMCA1MC43MSBDMCA1MC43MSAwIDU5LjI3MSAwIDU5LjI3MSBaIi8+JiN4YTsgPC9nPiYjeGE7IDxnIHN0eWxlPSJmaWxsOiNlNDhlMDA7IGZpbGwtcnVsZTpub256ZXJvOyBzdHJva2U6bm9uZTsgc3Ryb2tlLXdpZHRoOjAuODcwODg7IHN0cm9rZS1saW5lY2FwOmJ1dHQ7IHN0cm9rZS1saW5lam9pbjptaXRlcjsgc3Ryb2tlLWRhc2hhcnJheTpub25lOyIgdHJhbnNmb3JtPSJ0cmFuc2xhdGUoMzA4LjY1NiwgMTI0LjU1NykiPiYjeGE7ICA8cGF0aCBkPSJNMCA0NC4zNzEgQzAgNTMuMTc5IDYuNTQ0IDU4LjExOSAxOS43NTcgNTkuMTA3IEMyMC45OTEgNTkuMTg5IDIyLjIyNyA1OS4yNzEgMjMuNDYxIDU5LjI3MSBDMjMuNDYxIDU5LjI3MSA1Ni45MjUgNTkuMjcxIDU2LjkyNSA1OS4yNzEgQzU2LjkyNSA1OS4yNzEgNTYuOTI1IDUwLjcxIDU2LjkyNSA1MC43MSBDNTYuOTI1IDUwLjcxIDIzLjIxNCA1MC43MSAyMy4yMTQgNTAuNzEgQzE1LjY4MiA1MC43MSAxMi44NDIgNDguODE2IDEyLjg0MiA0NC4yODkgQzEyLjg0MiA0NC4yODkgMTIuODQyIDAgMTIuODQyIDAgQzEyLjg0MiAwIDAgMCAwIDAgQzAgMCAwIDQ0LjM3MSAwIDQ0LjM3MSBaIi8+JiN4YTsgPC9nPiYjeGE7IDxnIHN0eWxlPSJmaWxsOiNlNDhlMDA7IGZpbGwtcnVsZTpub256ZXJvOyBzdHJva2U6bm9uZTsgc3Ryb2tlLXdpZHRoOjAuODcwODg7IHN0cm9rZS1saW5lY2FwOmJ1dHQ7IHN0cm9rZS1saW5lam9pbjptaXRlcjsgc3Ryb2tlLWRhc2hhcnJheTpub25lOyIgdHJhbnNmb3JtPSJ0cmFuc2xhdGUoMjM2Ljc0LCAxMjQuNjY2KSI+JiN4YTsgIDxwYXRoIGQ9Ik0wIDQ0LjcxMSBDMCA0NC43MTEgMCAxNC4xODkgMCAxNC4xODkgQzAgNi40MzUgNS40NDUgMS43MzIgMTYuMjA5IDAuMjQ3IEMxNy4zMjMgMC4wODMgMTguNTYxIDAgMTkuNjc0IDAgQzE5LjY3NCAwIDQ0LjA1IDAgNDQuMDUgMCBDNDUuMjg3IDAgNDYuNDAyIDAuMDgzIDQ3LjYzOSAwLjI0NyBDNTguNDA0IDEuNzMyIDYzLjg0OCA2LjQzNSA2My44NDggMTQuMTg5IEM2My44NDggMTQuMTg5IDYzLjg0OCA0NC43MTEgNjMuODQ4IDQ0LjcxMSBDNjMuODQ4IDUxLjAwMiA2MS41MzYgNTQuMzY5IDU2LjIwNyA1Ni41NjMgQzU2LjIwNyA1Ni41NjMgNjguODU3IDY3Ljk4MSA2OC44NTcgNjcuOTgxIEM2OC44NTcgNjcuOTgxIDUzLjk0NiA2Ny45ODEgNTMuOTQ2IDY3Ljk4MSBDNTMuOTQ2IDY3Ljk4MSA0My43MTIgNTguNzQzIDQzLjcxMiA1OC43NDMgQzQzLjcxMiA1OC43NDMgMzMuNDA5IDU5LjM5NiAzMy40MDkgNTkuMzk2IEMzMy40MDkgNTkuMzk2IDE5LjY3NCA1OS4zOTYgMTkuNjc0IDU5LjM5NiBDMTcuMzIzIDU5LjM5NiAxNC44NDkgNTkuMDY1IDEyLjEyNiA1OC4zMjMgQzMuOTYgNTYuMDk2IDAgNTEuODA2IDAgNDQuNzExIFogTTEzLjg2MSA0My45NjkgQzEzLjg2MSA0NC4zODIgMTMuOTg0IDQ0Ljc5NCAxNC4xMDggNDUuMjg5IEMxNC44NSA0OC44MzYgMTguMTkxIDUwLjgxNiAyMy4yNjQgNTAuODE2IEMyMy4yNjQgNTAuODE2IDM0LjkzMSA1MC44MTYgMzQuOTMxIDUwLjgxNiBDMzQuOTMxIDUwLjgxNiAyNC4yMTQgNDEuMTQxIDI0LjIxNCA0MS4xNDEgQzI0LjIxNCA0MS4xNDEgMzkuMTI1IDQxLjE0MSAzOS4xMjUgNDEuMTQxIEMzOS4xMjUgNDEuMTQxIDQ4LjQ3MiA0OS41NzkgNDguNDcyIDQ5LjU3OSBDNTAuMTk0IDQ4LjY2MSA1MS4zMjggNDcuMjU3IDUxLjcyNCA0NS40NTQgQzUxLjg0NyA0NS4wNDIgNTEuODQ3IDQ0LjYyOSA1MS44NDcgNDQuMjE3IEM1MS44NDcgNDQuMjE3IDUxLjg0NyAxNC45MzIgNTEuODQ3IDE0LjkzMiBDNTEuODQ3IDE0LjYwMiA1MS44NDcgMTQuMTg5IDUxLjcyNCAxMy43NzYgQzUwLjk4MSAxMC40NzcgNDcuNjQgOC41OCA0Mi42OTEgOC41OCBDNDIuNjkxIDguNTggMjMuMjY0IDguNTggMjMuMjY0IDguNTggQzE3LjU3MyA4LjU4IDEzLjg2MSAxMS4wNTUgMTMuODYxIDE0LjkzMiBDMTMuODYxIDE0LjkzMiAxMy44NjEgNDMuOTY5IDEzLjg2MSA0My45NjkgWiIvPiYjeGE7IDwvZz4mI3hhOyA8ZyBzdHlsZT0iZmlsbDojMDA2MThhOyBmaWxsLXJ1bGU6bm9uemVybzsgc3Ryb2tlOm5vbmU7IHN0cm9rZS13aWR0aDowLjg3MDg4OyBzdHJva2UtbGluZWNhcDpidXR0OyBzdHJva2UtbGluZWpvaW46bWl0ZXI7IHN0cm9rZS1kYXNoYXJyYXk6bm9uZTsiIHRyYW5zZm9ybT0idHJhbnNsYXRlKDI0MS41OSwgLTQuNjQyNTgpIj4mI3hhOyAgPHBhdGggZD0iTTEzNS4yODkgMTE0Ljk5NyBDMTI3LjM5NSAxMTQuNzgzIDEyMS4zNjUgMTE1LjUxNyAxMTYuMjEgMTE3LjY5MSBDMTE0Ljc0NSAxMTguMzA5IDExMi40MDkgMTE4LjMyNSAxMTIuMTcgMTIwLjE2MSBDMTEyLjk3NSAxMjEuMDA1IDExMy4xIDEyMi4yNjUgMTEzLjc0IDEyMy4zMDMgQzExNC45NzEgMTI1LjI5NSAxMTcuMDQ5IDEyNy45NjQgMTE4LjkwMyAxMjkuMzY0IEMxMjAuOTI5IDEzMC44OTMgMTIzLjAxNyAxMzIuNTI5IDEyNS4xODkgMTMzLjg1MyBDMTI5LjA1MiAxMzYuMjA5IDEzMy4zNjUgMTM3LjU1NCAxMzcuMDg1IDEzOS45MTQgQzEzOS4yNzcgMTQxLjMwNSAxNDEuNDU1IDE0My4wNTcgMTQzLjU5NCAxNDQuNjI3IEMxNDQuNjUxIDE0NS40MDMgMTQ1LjM2MiAxNDYuNjEgMTQ2LjczNiAxNDcuMDk2IEMxNDYuNzM2IDE0Ny4wMjIgMTQ2LjczNiAxNDYuOTQ3IDE0Ni43MzYgMTQ2Ljg3MiBDMTQ2LjAxNCAxNDUuOTUzIDE0NS44MjggMTQ0LjY4OSAxNDUuMTY1IDE0My43MjkgQzE0NC4xOTMgMTQyLjc1NyAxNDMuMjIgMTQxLjc4NCAxNDIuMjQ3IDE0MC44MTEgQzEzOS4zOTQgMTM3LjAyNCAxMzUuNzcyIDEzMy42OTggMTMxLjkyMiAxMzAuOTM1IEMxMjguODUyIDEyOC43MzEgMTIxLjk4IDEyNS43NTQgMTIwLjY5OSAxMjIuMTgxIEMxMjAuNjI0IDEyMi4xMDYgMTIwLjU1IDEyMi4wMzEgMTIwLjQ3NCAxMjEuOTU2IEMxMjIuNjUxIDEyMS43MTEgMTI1LjIgMTIwLjkyMyAxMjcuMjA5IDEyMC4zODUgQzEzMC41ODQgMTE5LjQ4IDEzMy42IDExOS43MTQgMTM3LjA4NSAxMTguODE0IEMxMzguNjU2IDExOC4zNjUgMTQwLjIyNyAxMTcuOTE1IDE0MS43OTkgMTE3LjQ2NyBDMTQxLjc5OSAxMTcuMTY3IDE0MS43OTkgMTE2Ljg2OSAxNDEuNzk5IDExNi41NjkgQzE0MC4wMzcgMTE0Ljc2MSAxMzguNzgxIDExMi4zNjkgMTM2Ljg2IDExMC43MzMgQzEzMS44MzQgMTA2LjQ1MyAxMjYuMzQ4IDEwMi4xNzcgMTIwLjY5OSA5OC42MTE0IEMxMTcuNTY2IDk2LjYzMzggMTEzLjY5NCA5NS4zNDg3IDExMC4zNzQgOTMuNjcyOSBDMTA5LjI1NyA5My4xMDk0IDEwNy4yOTUgOTIuODE2NCAxMDYuNTU3IDkxLjg3NyBDMTA0LjgxMyA4OS42NTMzIDEwMy44NjMgODYuODM1IDEwMi41MTggODQuMjQ1MSBDOTkuNyA3OC44MTk0IDk2LjkzMyA3Mi44OTM2IDk0LjQzNyA2Ny4xODU2IEM5Mi43MzQgNjMuMjkzIDkxLjYyMiA1OS40NTQxIDg5LjQ5OSA1NS45NjE5IEM3OS4zMDcgMzkuMjA1MSA2OC4zMzYgMjkuMDkwOCA1MS4zNDEgMTkuMTQ5NCBDNDcuNzI1IDE3LjAzNTIgNDMuMzcxIDE2LjIwMDIgMzguNzcgMTUuMTA5NCBDMzYuMzAyIDE0Ljk2IDMzLjgzMiAxNC44MDk2IDMxLjM2MyAxNC42NjAyIEMyOS44NTYgMTQuMDMwMyAyOC4yODggMTIuMTg2NSAyNi44NzQgMTEuMjkzIEMyMS4yNDQgNy43MzYzMyA2LjgwMyAwIDIuNjMzIDEwLjE3MDkgQzAgMTYuNTkwOCA2LjU2OCAyMi44NTU1IDguOTE3IDI2LjEwODQgQzEwLjU2NiAyOC4zOTA2IDEyLjY3NyAzMC45NDkyIDEzLjg1NSAzMy41MTU2IEMxNC42MyAzNS4yMDIyIDE0Ljc2NCAzNi44OTM2IDE1LjQyNyAzOC42Nzg3IEMxNy4wNTkgNDMuMDc1MiAxOC40NzggNDcuODU4NCAyMC41ODkgNTEuOTIxOSBDMjEuNjU2IDUzLjk3NzYgMjIuODMyIDU2LjE0MzYgMjQuMTgxIDU3Ljk4MjQgQzI1LjAwOCA1OS4xMTA0IDI2LjQyNSA1OS42MDc0IDI2LjY0OSA2MS4zNDk2IEMyNS4yNjMgNjMuMjg5MSAyNS4xODQgNjYuMjk5OCAyNC40MDUgNjguNzU2OSBDMjAuODk3IDc5LjgxODQgMjIuMjIgOTMuNTY3NCAyNy4zMjMgMTAxLjc1NCBDMjguODg5IDEwNC4yNjcgMzIuNTc3IDEwOS42NTcgMzcuNjQ4IDEwNy41OSBDNDIuMDg0IDEwNS43ODMgNDEuMDkzIDEwMC4xODQgNDIuMzYyIDk1LjI0NDIgQzQyLjY0OSA5NC4xMjQgNDIuNDczIDkzLjMwMDggNDMuMDM1IDkyLjU1MDggQzQzLjAzNSA5Mi42MjUgNDMuMDM1IDkyLjcwMDIgNDMuMDM1IDkyLjc3NTQgQzQ0LjM4MiA5NS40Njg4IDQ1LjcyOSA5OC4xNjIxIDQ3LjA3NiAxMDAuODU1IEM1MC4wNjYgMTA1LjY3MSA1NS4zNzMgMTEwLjcwNCA1OS44NyAxMTQuMSBDNjIuMjAyIDExNS44NjEgNjQuMDM4IDExOC45MDYgNjcuMDUzIDExOS45MzYgQzY3LjA1MyAxMTkuODYxIDY3LjA1MyAxMTkuNzg3IDY3LjA1MyAxMTkuNzExIEM2Ni45NzcgMTE5LjcxMSA2Ni45MDMgMTE5LjcxMSA2Ni44MjggMTE5LjcxMSBDNjYuMjQ0IDExOC44IDY1LjMzIDExOC40MjMgNjQuNTg0IDExNy42OTEgQzYyLjgyNyAxMTUuOTY5IDYwLjg3NCAxMTMuODI4IDU5LjQyMSAxMTEuODU1IEM1NS4zMzEgMTA2LjMwMiA1MS43MTYgMTAwLjIyNCA0OC40MjMgOTMuODk3NSBDNDYuODUgOTAuODc3IDQ1LjQ4MyA4Ny41NDQgNDQuMTU3IDg0LjQ2OTcgQzQzLjY0NiA4My4yODQyIDQzLjY1MiA4MS40OTIyIDQyLjU4NyA4MC44NzggQzQxLjEzNSA4My4xMzA5IDM4Ljk5NiA4NC45NTIyIDM3Ljg3MyA4Ny42MTIzIEMzNi4wNzcgOTEuODY0MyAzNS44NDUgOTcuMDQ5OCAzNS4xOCAxMDIuNDI3IEMzNC43ODYgMTAyLjU2OCAzNC45NjEgMTAyLjQ3MSAzNC43MyAxMDIuNjUxIEMzMS42MDQgMTAxLjg5NyAzMC41MDUgOTguNjc4NyAyOS4zNDQgOTUuOTE4IEMyNi40MDUgODguOTM1NiAyNS44NTkgNzcuNjkyNCAyOC40NDUgNjkuNjU1MyBDMjkuMTE0IDY3LjU3NjIgMzIuMTM4IDYxLjAyNjQgMzAuOTE0IDU5LjEwNTUgQzMwLjMzIDU3LjE4ODUgMjguNDAyIDU2LjA4MDEgMjcuMzIzIDU0LjYxNTMgQzI1Ljk4OCA1Mi44MDQ3IDI0LjY1NSA1MC40MjA5IDIzLjczMSA0OC4zMzAxIEMyMS4zMjYgNDIuODg1OCAyMC4yMDMgMzYuNzc0NCAxNy42NzEgMzEuMjcxNSBDMTYuNDYxIDI4LjY0MDYgMTQuNDE0IDI1Ljk3ODUgMTIuNzMzIDIzLjYzOTcgQzEwLjg3MiAyMS4wNDg5IDguNzg4IDE5LjE0MDYgNy4zNDYgMTYuMDA2OSBDNi44MzMgMTQuODkzNiA2LjEzNiAxMy4xMTEzIDYuODk3IDExLjk2NjggQzcuMTM5IDExLjE5NDMgNy40OCAxMC44NzIxIDguMjQ0IDEwLjYyMDEgQzkuNTQ2IDkuNjE2MjEgMTMuMTcyIDEwLjk1NDEgMTQuNTI4IDExLjUxNzYgQzE4LjEyOCAxMy4wMTI3IDIxLjEzMiAxNC40MzY1IDI0LjE4MSAxNi40NTYxIEMyNS42NDUgMTcuNDI2OCAyNy4xMjUgMTkuMzAzNyAyOC44OTQgMTkuODIzMyBDMjkuNTY3IDE5LjgyMzMgMzAuMjQxIDE5LjgyMzMgMzAuOTE0IDE5LjgyMzMgQzM0LjA3NCAyMC41NDk4IDM3LjYxNCAyMC4wNDg5IDQwLjU2NiAyMC45NDUzIEM0NS43ODQgMjIuNTMxMyA1MC40NiAyNC45OTgxIDU0LjcwNyAyNy42Nzk3IEM2Ny42NDUgMzUuODQ4NyA3OC4yMjMgNDcuNDc3NiA4NS40NTkgNjEuMzQ5NiBDODYuNjIzIDYzLjU4MyA4Ny4xMjcgNjUuNzE0OSA4OC4xNTIgNjguMDg0IEM5MC4yMjEgNzIuODYxNCA5Mi44MjcgNzcuNzc3NCA5NC44ODUgODIuNDQ5MiBDOTYuOTM5IDg3LjExMDQgOTguOTQxIDkxLjgxNDUgMTAxLjg0NCA5NS42OTM0IEMxMDMuMzcxIDk3LjczMjQgMTA5LjI2NiA5OC44MjYyIDExMS45NDUgOTkuOTU4IEMxMTMuODIzIDEwMC43NTIgMTE2LjkgMTAxLjU3OSAxMTguNjc5IDEwMi42NTEgQzEyMi4wNzcgMTA0LjcwMSAxMjUuMzY5IDEwNy4xNDEgMTI4LjU1NiAxMDkuMzg2IEMxMzAuMTQ5IDExMC41MDggMTM1LjA0NSAxMTIuOTY5IDEzNS4yODkgMTE0Ljk5NyBaIi8+JiN4YTsgPC9nPiYjeGE7IDxnIHN0eWxlPSJmaWxsOiMwMDYxOGE7IGZpbGwtcnVsZTpldmVub2RkOyBzdHJva2U6bm9uZTsgc3Ryb2tlLXdpZHRoOjAuODcwODg7IHN0cm9rZS1saW5lY2FwOmJ1dHQ7IHN0cm9rZS1saW5lam9pbjptaXRlcjsgc3Ryb2tlLWRhc2hhcnJheTpub25lOyIgdHJhbnNmb3JtPSJ0cmFuc2xhdGUoMjcyLjUwNCwgMjQuODAyNykiPiYjeGE7ICA8cGF0aCBkPSJNNC4wNDEgMC4wMzAzIEMyLjM5NSAwIDEuMjMxIDAuMjEgMCAwLjQ3ODYgQzAgMC41NTM3IDAgMC42Mjg5IDAgMC43MDMyIEMwLjA3NSAwLjcwMzIgMC4xNSAwLjcwMzIgMC4yMjUgMC43MDMyIEMxLjAxIDIuMzE2NCAyLjM5NiAzLjM1NDUgMy4zNjcgNC43NDQyIEM0LjExNSA2LjMxNTUgNC44NjMgNy44ODY4IDUuNjEyIDkuNDU3MSBDNS42ODYgOS4zODI4IDUuNzYyIDkuMzA3NyA1LjgzNiA5LjIzMzQgQzcuMjI2IDguMjUzOSA3Ljg2MyA2LjY4NjYgNy44NTYgNC4yOTUgQzcuMjk5IDMuNzA5IDcuMjE3IDIuOTczNyA2LjczNCAyLjI3NDQgQzYuMDkyIDEuMzQyOCA0Ljg1IDAuODEzNSA0LjA0MSAwLjAzMDMgWiIvPiYjeGE7IDwvZz4mI3hhOyA8ZyBzdHlsZT0iZmlsbDojZTQ4ZTAwOyBmaWxsLXJ1bGU6ZXZlbm9kZDsgc3Ryb2tlOm5vbmU7IHN0cm9rZS13aWR0aDoxOyBzdHJva2UtbGluZWNhcDpidXR0OyBzdHJva2UtbGluZWpvaW46bWl0ZXI7IHN0cm9rZS1kYXNoYXJyYXk6bm9uZTsiIHRyYW5zZm9ybT0idHJhbnNsYXRlKDM3MS42MDksIDE2NS41NikiPiYjeGE7ICA8cGF0aCBkPSJNMCA5LjQ2MyBDMCAxNS4xMTcgNC40NjcgMTguOTI3IDkuNDY0IDE4LjkyNyBDMTQuNDYxIDE4LjkyNyAxOC45MjggMTUuMTE3IDE4LjkyOCA5LjQ2MyBDMTguOTI4IDMuODEgMTQuNDYxIDAgOS40NjQgMCBDNC40NjcgMCAwIDMuODEgMCA5LjQ2MyBaIE0xNi44MDggOS40NjMgQzE2LjgwOCAxMy43NTMgMTMuNTI4IDE2Ljk1OSA5LjQ2NCAxNi45NTkgQzUuMzUxIDE2Ljk1OSAyLjEyIDEzLjc1MyAyLjEyIDkuNDYzIEMyLjEyIDUuMTczIDUuMzUxIDEuOTY3IDkuNDY0IDEuOTY3IEMxMy41MjggMS45NjcgMTYuODA4IDUuMTczIDE2LjgwOCA5LjQ2MyBaIE0xMi4wMTQgMTQuODY0IEMxMi4wMTQgMTQuODY0IDE0LjEzMyAxNC44NjQgMTQuMTMzIDE0Ljg2NCBDMTQuMTMzIDE0Ljg2NCAxMS4wMyAxMC4xMiAxMS4wMyAxMC4xMiBDMTIuNjk1IDkuOTQzIDEzLjk1NiA5LjEzNSAxMy45NTYgNy4xNjcgQzEzLjk1NiA0Ljk3MSAxMi41NjkgNC4wNjMgOS44OTQgNC4wNjMgQzkuODk0IDQuMDYzIDUuNjc5IDQuMDYzIDUuNjc5IDQuMDYzIEM1LjY3OSA0LjA2MyA1LjY3OSAxNC44NjQgNS42NzkgMTQuODY0IEM1LjY3OSAxNC44NjQgNy40OTYgMTQuODY0IDcuNDk2IDE0Ljg2NCBDNy40OTYgMTQuODY0IDcuNDk2IDEwLjE5NSA3LjQ5NiAxMC4xOTUgQzcuNDk2IDEwLjE5NSA5LjE4NyAxMC4xOTUgOS4xODcgMTAuMTk1IEM5LjE4NyAxMC4xOTUgMTIuMDE0IDE0Ljg2NCAxMi4wMTQgMTQuODY0IFogTTcuNDk2IDguNjgxIEM3LjQ5NiA4LjY4MSA3LjQ5NiA1LjU3NyA3LjQ5NiA1LjU3NyBDNy40OTYgNS41NzcgOS41OSA1LjU3NyA5LjU5IDUuNTc3IEMxMC42NzYgNS41NzcgMTEuOTg4IDUuNzc5IDExLjk4OCA3LjA0MSBDMTEuOTg4IDguNTU0IDEwLjgwMiA4LjY4MSA5LjQzOSA4LjY4MSBDOS40MzkgOC42ODEgNy40OTYgOC42ODEgNy40OTYgOC42ODEgWiIvPiYjeGE7IDwvZz4mI3hhOzwvc3ZnPg==;" vertex="1" parent="1">
          <mxGeometry x="123" y="679.09" width="76.78" height="39.67" as="geometry" />
        </mxCell>
        <mxCell id="uzlXRfIgHOG-nUSrqmDE-21" value="" style="shape=image;verticalLabelPosition=bottom;labelBackgroundColor=default;verticalAlign=top;aspect=fixed;imageAspect=0;image=data:image/png,iVBORw0KGgoAAAANSUhEUgAAAYAAAACDCAMAAACz+jyXAAABC1BMVEX///+jJCLcOCxJTE2sJySgIyF0ERM4PD1GSUo+QULfOSza2trz8/OvsLA0ODrq6upVWFnBwsLUpKOfDgqdAADWNivbMiXaIxDFMChBREXXNivbLyG6LCbQNCrbLB3LMim8LSbaHACwKCTaIAv98/JvcXKiHx365uV8fn/vr6zi4+NQU1SkpaWhGhegExDeQjftpaHkbmf1z83Nzs5iZGWKjIyYmZriYFjxu7jrmpb43NvgUUjme3Woqqq5urriwsK6aGfzwr/oiYTsn5vjamPgV06IGRjohoCxT07Nlpbp0dHld3HfUkpoCxB5ExSUHhu0WFe/d3anNTTHhoXasrHCfXzRn57jxsWoMjDqOWVXAAATiklEQVR4nO1da2PaNhfmEmobjIGF4DikJCTcAjRJwyX3rKHpm3Ztt3bN1v7/X/LKBtuydI4kE9ouhfNpo5bAzyOdu5REYmFycXb+/vT05eT4ZHFzrkRRGmdXtf1atUKkWrPrdweNn/2LlkkaZy9tu5pNhVKp1V/e/uyftSxyclW1KylOKnZlcvGzf9uvL+3zo/3I2qckW92/XKmi7ymNs1O7hqDvqyL7/cokfyc5ua9BqoeVqn30uv2zf+uvJ43jI7sagFwTEpGt7Z+uLPJC5fZlnVY9lePTfUYVVWrVyP/atfPVNliQtM9TjOqp3pMPK+GHRPNfHpxHGCDboH569rN/+q8gZ6d13u7uu/7m7Z1nkQn6b47Jar/k1FLFrq4c08fJxX0FtLuVO++fXZ90//TA0zUn+5A1qO6/WTmm80rj4BJ1+eu+r3nia/r3VfhJYhzuV47pHHLyvibwdSqXzOMNaAP428BexWcxpf16y0ZWtAdprZ5ifJzzGv74Kj6LKbd3gN0NpWpXzjnbCpnqKAd29vVT3wa5wYD5oJRb+Je0J8J4lzj4V+Badp1VzGIE++buKcdng7SlaVY//ODG0YjkF/oloNNJwV8VJZ2RNGmEvsqTjc+uLT1NROv4H4wt9//T1nhhX3FxLwGwcidR5I2zO0m26MnGZ4Mp3ISBPPOBdbOQLxA5ndQK3q8dfbi7Oj84u71ocCq90WifTKT5uqdZOGjqM7z19PSDYfBBcQHTi53O6Bp2i5C1mr1v2+ez0e2Ts+PJyzdHhB+R8xROUbWfXHxmpH3Rut4HVvhB4ZFzRzOd6pK1p/r8om7X3PIwsH+yqZ3tLLSviDF/UvGZSRHgeT7mwgi4vWMzmx5y3jL3hECLMDDLSNwj7GWzz3fX1j4+az0HOajaR8dPZht8LwLa57zTma3WbPvo5eT18cHZ2dnB68n7y5oNu5j7rk+EBMHZ1Obe2tra3rNnzz7+bxfeBk+nlC8iwJqbAMjprNqp+zPORrZvJ0dANTKbIv92DATBZPFvr3niEkAowLZBxa4+CceUI+DxNuBiAjidNYFmvjhPcRTUiB0+4nnZ8hY/RYC3DbZTEAfEMX3z33dMeQKaj/KCGgdv6rxSqdgTsVI+rrKU1dsnNgNoyl/8UQLcbZDZQbbB0X9dE/EE5ILAIH4c0J5UIaezciR1zxsfGINbefk+MhO9+FkCBNugUp/EB+VHCk9A4oYNjZVlAlvUbEVFGbOFL9pFcp3ONUaiBLgCb4P6f9spBQhIDIaWphl94ThAGltI5rh2oDKc1Tj04t9l0QcJePbxz02egdpx3Bf5oQIRkEgUct34U91hMZet5o3UMQK2kwD+PAGeQwTQ/1v8V/mBAhMwl2D4pWwlJdBGS1/ZDYUdgIQE2Y31pSFgF8u4VU5VhmNhrwdjamdPRMDHP8HFTwZuZpaHAGIDEfxq9/LRx6gJQLYBRcBfmykY/udrmeTyEJDMbMM4EAZOJX5o470E/xS3Dfb8xb+3AX9r9vleJplcJgKSmSSyFElEdCWgoD2pqSVN6W2wJ1z8PvzLRYCIgqp9eX4ChcMXx29sYedDFNdgG+x9JIt/C0E/u7M2hf/7EWDmSjd5IqWcqT6okCvlr6/JmCDLAxNgdtE0ULeU7/fzJcBNnb5vJrmLoFKp2bUPk4OTi7bHQ6N9cXJwflqxxQUbN3vNoLux6THw1yaYfvDSpUkf/hgE5MbDXjNSCc/lR8Oenu6UuGcH46KhGVPRjOJ4wD0BSGmU9gdpRm80HQMR0G0ampbmvzVh5puOO4NDZnCaNwzz/htnMttwgnIKp01JrQYVW2YwVmrus0dXr7msKFng25tg5iHlhW2ZEH51AjqWo+u61vOXXndEYCIfpcmHw8irmn1dc/R0KLqj6deS6bsjLTKIjHH6JkhAyUtF6FxRPtexDHoGw+pEiA/fOZNZwzSRgmQ9lmqpU7JbvBDuDbBFMPRd1U/Dr0zAWJu9lj592aHlhO/q9OgnrRAzCg1NREGhQ08XTOtizBHQDYryEXgLTUtnJ9C1IvVM5LVxTSSFPnV5dXx7EZqL13IHyR+fIqo/Cr8qAabmv5SXgxkxL2sE6A7SAPzTZ4qoEe1rAPzemPQg/KIZAR3/WX1ITZGHpyC7M/hW5sVFmghEfr92dOcvekou0BQFO8nWbpJFX5mAUgCr3kt0e+zL6s3Zc2N+GVJgwL1UhSHGmbtzwv/mCjJGqPk6GjB4OoPVMUECVDWRC33qTXTR03Kk1lSR3djmFn8MAvIhEHrO4Pd6UYbDFEKolyrn4JxFR+M14SZOIdFkzgAmwNNE20iYFMj5Geid+iJuzvXRzwK6Z14CiBng3nGmDYQ4eJCNuJkHgj2jSsBI/L361FrA75/J7MHVKh+7D8Jk9QXenR5OEXE7WSk/xCUAEMdb2k1Ek9MgsgwMLOmYYCxGgHSOqeeAQkAMskATkfDgHo+S5QoI1T0+AUodKhICPCg67DO643DqhdFCXbHOig7FCOhJ95DmBg0tHASJQa7WPyDV84lEAYl0jyet8u8q+IsJ0C33/cYRLF0/vjkaj4ZGNCaIOo9mWlX/CAgoRUnUHTcUA7y0Vy8EQEgMMnL6FDwfRsEv1D2urH/7Qwl/lADyttrU2Y7oAeK89P1kQG6c1mg4NCpq6zBKi4QLZNeQCA/iBSOgST/saMNxPn89SkfcUo+ARkvEgKeJBAbZbfLnCjdbIgVEdI8E/hflL2rwYwQ4WnF8M/CQNun3dfRow0KpSA13muHnzNrVmvmuaZqF3PVQ4ynACKCZ1zo+74MORYGnghKNT2WBGkpODbJoG+wzLYX3uAICQl7u21qf1TuzIAIcYxSGViOKAKPD5d/6FKBaoISiCkhrUhm0HO/RIgTkwgd1g04QdTvBl/q77iEpocBNlwoi5EqtRqWtb9EQjOieNTH6hOzdqxgNojwBJMChMpK0MYW9/XTAUNBQ1Y9Myrb5lFgDjhBwE87iMLH2YLrzdCuMAB/+ljDgbgOhQd73DXIDvb1mAwx5o19C4o+KrX6zBEeA7kQyMdQGMOCTK+YweMTfAhEDYHGJigLj3SAEhD9N5zuFrh1Ls3r0vjiTrk25Qa5OXN3xEizSKOieMBGl3hnHEuBEE6AFahU2sTnCkxVNfk4LyFgzPpKcgCE/RyI3oJhtnFdtFYQkuTr3VpSTM/CEfFaBX5reSl2hHs0TwKJ8TeUs0fpLaKenyBUpeOE2w25UR8EElGjyxcWf81lPtNw/kUbIFahKhqTbmGkZBafWGRclgFvlweJOG4LDi4HT43mFXcp7cZA2w4ibJDfCbgIbp6BxFGKmYCVlBpmHX0X38Kkntc64CAF6j3nLQoiBIZrF58nTQde0a4rBRvv4mBsacZccq1NCJovqbBKjKmgi5ZS1NORNYgVptc64CAFcdTzUAo7w7GjwnJtIprDF+zzp5Y0RMIpGc45h9ZqjG774wIMm91ZcgywKDfyZVNxOUKWpdsbRBDhcSnMcQOCMSwK58Z9zsaQ0kIHrjSFbkOEJyHG5ON0N0NPsVgAaY8ESFb9wJcUzJdUPp72zm3Oko/mDKdRidgyRBIiX6MhBRx2niJePJuPYhIb/UzRnRO8DsDPOPVKkoIkEoYEs2ymgMEZnHF2Q4Q1mMUZKbYpNPzGg7IbAcFM8oQSYaDrU0YZhDIB1xslTZknPdwQpkMOPKrHsRozOOIoAg+8HiYu/q8W4pY2IwzwGFWQKeFFN14JStGcFYRSVDDJvQrMuhjL4kZJbMDQ2AcDROFkhjCegHwkdRIftQiMgKEkWdLwWpFvXPgGCzjgFPT4FMxidVTAgqO4JGhPnIMDh/tGMTYA2oBNBqBPqSlOFgITZFFR2Zh1EYkymnozUlq7tPp82/Wxsyhc/pnsiPlNcAqCzifJSJEuAmehT2aPHE0B+oYMvg2kyLrKQQQqIQVbYBhn3QExSzhUSQrB7bREEyGuCDP5kSVIEPF4Fef/Q18E6jsdANxHtjMPy/tkthQhZQfB9xmVBFkEA5awTH1wmjjVKRK2KqHVUxQj7FOSHcC1tmqZjEUIoUDHIMviRbCo49yII6FBvXZTJcOqcUzk0Q9C1qOKG0o9fNw2LrQinpyUxFiU0zaASIQvQx4IGJFxeBAGhOgEzwqDkFheIMdIt9TsO06no/moAKsS5V4uQEfiVdc8CCaCCKkv1NAAFpMgIKKQiQMmNoj3CxAqAeKG6WiVC5qdDdQ+eKV0EAaYwTEOEqrbgKTyVZBwmkZZfEm1jSxZLMyhFyCoziVN1iyCA8hXVb9Cgk5golCrpaFTMMZVAGQk647AKZByDLAh5xRalrNQaISGA1tSqV2gM6EIKYgVuFAoyIhnTxkmEXpKOcePAF0wgCHkX2xkHEkDHwprqLQK0mdTAioBSSZLQ1OwVR+C3UiQXE58knXFYaCCPkFHVLy0TrCdjd8bBOobSJ3pa8R6lMc0AdAelWlE+MdS84ALaedTOLCYah9LOONQgi5YxoU4p5OVlrs44mAC6L0jX4T1QGnVGtIkuRAopPIBmUaktxe/JBi5yLYQTuK5u421ZiIfIIKNgukPm0T1EWq/UO7NkBERMqg65Qt205uiONkTG8J3rA/YcAkxAWA8zikxETTcWTct4D4frYkwE6VLIJ8qg8KuUKDdSgr73uASYkWykxjUnXs/aBB2KASaLaqSpTVDocN2hMAFUTkmnyy/EB6JnMGZz/9aauxDP1d3ROqNSd4o7tFqX3ZGgTEAizzQn0NVAMx8e3aM7sPJMc65hjEq5glnI5ZvAqUmYgMg20g2r2S8NcrnBNTPDLEA8uKzInXuBQXZ9opkk4YSeSgRHWZtKXem2KAUC2PMxjuZ0xjeD3KDUb9LndyNBF3emxu12t6w47enXTBbaa5jX2Bmm2Y4D98Y4lQYSkUHe2Nnc3d3dfA7fhKiQw2B8prrSHlAggD9sMcWCSY1FCFjAAY0C1xMBidd5emrP3lst748W4rOugP+gontYnyluYxYe6nbRdHwExlL8MSICEiOFU06Ga4KvajRUaoX4OOfpVdojXPvCDIvbmCXINQyAUxWs6L3omJzCGDEBsrOxwW+OvrliIZ4HDEFfYTpIr2VTC8kFKTPgcFGaOgNoJJyXTKHr3oNcY5Zajy4SZjEwKridkGXP7iwmGRegKTl0bQz5bHU3LSwpUw2MJYSARK5oQEP9ccXpcxneZ1QpxEtOsXqzzNEU7Q3c2ovfmCUuuZhDgT7gLziZCu/yh0OMMByeufJgMq4PXfYx+1I/wEtmoOZEpdMCws64rTk74whv7kA1AsK8vLj9Fr01I3pvBiMlHV7ButY0ww712cmDgBH/T2p4YoL3rZAZekHc4VpVSKOrtQShCZ85O+OCbaN4XU3w2vxRIkbMsQG4No5WFJVqrnV+Fzja0AWvOAPWP3pWCu6OjmZQuyOH/V5H61HBtYcGuJTde8bm6YxTakyEvzEcqEhAbnalA3gCj6Xgukh7/7p7aLsjuzTrpjm9/ykYos9iabPo4qpbQUvqzO/k7442b9wLs5xZ74Wh6dCFTYhvqWSQ3YPE4VgF2hDdE1F7qjdmDQzDcQzVvx3VzXeKjuWGpJbRa44HKpXiQmk07BkWCYSdYrNPYdfvaVaRWspjEt1pcAXBzOVHzSGR5ijPblUxKqqdcV4ITGjY2JEyBnPNRuLKd8aZ+U6nH+fKZtPsEinEuLPPG1QwTW4I84lZusGOwQiEXphgvk2xVT0564ybT/dwSdX/+LWVCxRmKYNGVcGjVBKkOwVSdMtJQBJ17xfSGQcWFZCZl5YA3L1XMcgC9FHdAwfLS0wAfiZeKUKG4YfvQBPEGktNQBK9pEapVZ2fDPF7RNH2shOAN6vHbVXHDqJKEnVqjVm/goiww0KDR3fGSfMc5aXZAIm3ootqcIP8iM44eabvcF2tMe6XkLb4siahQZbBD6t+2cBWOUZn0C8g7W+SriDcIMfvjJPnWFvlt4p9ib+OvCsfSihALqkRdMZBKW6FKsOL8tuvPxuOnyCNL+vr890ah3TGgfDLo4jD8qelW/0zabyTX9wH98bxnXFgyV5B96yv/7M0vickD3+XxX3SmEHOZje218LOOGinyBOqrXLy3VKZXkj+eCUzBqhBTm3s7G5vw51xCk13L8p/K13W/ctL+0tZromQW+OQzjiFM2VE9S+j5UXk4ZtMEwn+6hUPv7Q631ovf1lq1c+Lq4nkBln2Fx5SSm4nUf3Lk3RQFyWfSHZrHP1n2RAhumeJcg7x5Pe3KgYZvzVOnqpYerdTJn/8cyiNztBTwFLL2yp/+3fp3U6ZNH5TCA0An0gO/4vy25XuUZKvCqFBNDrLSlPVxO/5vKwZhzmk8W5d/tcFtnemYUDW/ZOdYsenVX6x0j0xRSVJkVnb297eW5M1Zq10z3zyx+eyzCAnpffFrXTPY6TxrzxClsC/Src9Ur7KI2RciO5ZpdseLe0vLZlBhuWw/GqlexYjD29ja6JW+XCVblugKBlkGv5vK92zYGn8q6yJVm7nd5LfP0kj5ORK9X9Xaf8jiZBb64dfVm7n9xRhro54/auMw/eXr59gClaFrh8m7c+8MVjB/0Ol8e4wYgxWLSY/Xh4+lcuHL1qt1ov18vo/K8fnJ0jj67vPnz69+vKwQj+m/B/MOkzENd3NbAAAAABJRU5ErkJggg==;" vertex="1" parent="1">
          <mxGeometry x="400" y="678.76" width="116.56" height="39.76" as="geometry" />
        </mxCell>
        <mxCell id="uzlXRfIgHOG-nUSrqmDE-22" value="" style="shape=image;verticalLabelPosition=bottom;labelBackgroundColor=default;verticalAlign=top;aspect=fixed;imageAspect=0;image=data:image/png,iVBORw0KGgoAAAANSUhEUgAAArwAAADICAIAAACF9KXqAAAgAElEQVR42uydB3xT5dfHs1dXuvfeg7YUCkVW2QgylKEgoCgoiEwBEQVUXCAIyBAEZCMbQSh7SqHQXVq6955p0uzc3Lzn5kJI00Ggxb/6Pt9Pxfbm5u77nN85z3nOQ9VoNBQEAoFAIBCIZ0FDlwCBQCAQCAQSDQgEAoFAIJBoQCAQCAQCgUQDAoFAIBAIJBoQCAQCgUAg0YBAIBAIBAKJBgQCgUAgEAgkGhAIBAKBQCDRgEAgEAgEAokGBAKBQCAQSDQgEAgEAoFAogGBQCAQCAQSDQgEAoFAIJBoQCAQCAQCgUCiAYFAIBAIBBINCAQCgUAgkGhAIBAIBAKBRAMCgUAgEAgkGhAIBAKBQCDRgEAgEAgEAokGBAKBQCAQCCQaEAgEAoFAINGAQCAQCAQCiQYEAoFAIBBINCAQCAQCgUCiAYFAIBAIBBINCAQCgUAgkGhAIBAIBAKBQKIBgUAgEAgEEg0IBAKBQCCQaEAgEAgEAoFEAwKBQCAQCCQaEAgEAoFAINGAQCAQCAQCiQYEAoFAIBAIJBoQCAQCgUAg0YBAIBAIBAKJBgQCgUAgEEg0IBAIBAKBQKIBgUAgEAgEEg2IfzcajeZl70KhULS/l/T0dLVaje4FAoFAINGA+OdSVlIiEok6vh2ZTNaOYigpKWnnu4cPH8YwjE6no9uBQCAQSDQg/qEIBIL8wkJzc/MObicrMzM/L6+tT3NyciwtLalUaqufHjx4sLKyMjw83Mh9/Q1xEQQCgUAg0fD/ApFQKJVKW/0Ix3GDJefPn3d2cmrLnBtJQ0PD8WPH3NzdW/20vKICNIGNjU2rn16MiTmwb9+0adOM2REcf1pqasuz6AgFBQWdu0EEAoFAogHxr6G6pqbVOH/6w4elpaX6S+7cvp2akuLj69vWptRqddajRyqVqv09rvziCzcPj7bCFWf/+CMoKKjVj27euLF69erZc+bY2toac2ox586BgW+nF0MmkymVylaVgUAgaLk8ISGhsLCQRkNvAQKBQCDR8J9GLpe3XAimEfx+NpttsFwoFB4/dszKykq3RCIWr1mzpnu3bm1tH76yd88eDo/HZDLbOYw133+flZ09ceLEVj89fOiQQql0cXFp+VFiQsLny5eHd+06duxYY8437u7dzMxMWL+tFcRi8e7du1tKnNra2iuXL/N4PMP1m5pOnjhhfLcIAoFAIJBo+LeSnJwsb9ENcTc2tlVHfP26dSAyzMzMdEs2bdoECiOwjRhAXk7OvI8/dnZ29vDwaOcYYLMXYmLmzp3L5XJb9eP379//5ptvtvwoKTFx2aefsjmcz5YvN+ZkKysrN27cOOb119tZ57tvv22oqzMxMTFY/tP69W5ubi2F1IaffnJ0dLS2tkbPEgKBQCDR8B/n1q1b4uaiAWTB7Vu37OzsDNa8du3ajevXe/bqpVty9cqV89pQP6VFNoNSqTx08OCHH35oamY2/NVX29p7U1PT58uX/3nmjLOLy8jXXmu5QllpKciCYcOGgWFuGWP4dOlShVw+a9asVoMQBsBxLl+2LKJbNz8/v7bWObh/P5z7uPHjDZYf2L8/IyNj0ODBBsuvX78Ol2Xy22+jBwmBQCCMh4Euwb+Rurq6O7dvDx86VD/BEKRAXn6+gRkuyM//dvVqjUbj4+NDLikuLl6zZg0sAb1wRptwwGAQj0FtbW1sbOzJ48cLCwupVOrHc+e2tff79+9v2rChtLQUV6vnzptHft1AMSxasECNYe9On95S66z+6iuVUhkRGTmhjU4NA77/7js45s1bt7a1ws3r13fs2BESEhIcEqK/PCU5efsvv8ybP5/FYukvr6mp+fqrr0aPGdNWeiYCgUAgkGj475AQH9/Y2HgvLi48IkLnju/bt4/NYumn9YEOAHdfpVLR6XQbayKhQSKRrFq5UiqRkEMGLsTEZGVlOdjbS2Uy0ApNTwo2ODk5BQYGttxvVmbmiRMnYs6fp2oBDz5KL4BB8vDhwy9Xrqyvrwc/3tLSUv+jy5cugbWGL5qZmS1atEh/1IZarW61Y+XwoUOXL15c+tlnpqamrV6K9IcPv9aqohkzZ+ovr66qWrVqlZmFxdjmnRqw5ldffqnB8WlTp6IHCYFAIJBo+I8jlUovXboE9vb8uXOTJk/m8/mkcQUz6eXpqVutqqrq888+q6ioAHsM65hZ2crVONjsvNxcXe1FkA5FBQVFhYWkNdUNPiwtLZ378cc9evTw9vYGay0QCHKys1NSU5MSEugMBlkpAQz/x/PmGRzbyRMntm3ZolSpeDze+AkT9D86fuzYhp9+AqEAewfv383NjVwuk8nu37/fvXv3lrLgxo0bv2zbFhoaOnLkyFYvRVlZ2WfLlqkxLLJHj+6RkbrloJNWrlghbGyc9dFHBtkMu3fvzkhPB0Fj06IfB4FAIBBINPzXyM/PT0xIwNRqsOVfLF8+f+HCzMzM7b/8AiY/Lzfnxr0En9CQxNh7ezb/VFtbCwtBCwhFosMXb2XE34u7do3W3KFXt1alAGRBUmIi/OgqKdGoVOI3KhXDMDD8YIk//+ILXf4E7CU+Pv7A/v3JSUnwFRqNNm7cOP3BGj9v2nT0yBHy9wkTJuiyJUDZbN+2bdyECS0VQ0py8mptWGLhJ5+0eh0aGxoWf/JJY2Mj6KfZs2frfwTaKCsry8baesyYMfrLY2Nj9+zebWFh8eZbbz3XNYeTamhoQFmTCAQCiQbEv4x9e/eCsw5mDP5NSkqaNnUqVWvViCW4et3331o7OpblZkvFTeT6VBoNV6sPrv9aqZDTjC7VbDATBN7cgnJ4JvlllU2Xr8nFwsL8/IdpaTm5uWQUgaaVFK+PG0euXFlZue7HH+/HxYGwADER0a3bB7NmkR8lJiau/OKLSZMnd+nSxWDvOdnZny9fDlub9s47umwMfZqamhYvWVKmrTzx1uTJfv7+uo82bdx44/p1OMrp772nP6yjuKgIxASdTn93+nQyPGM8oHgie/T4fyUaiouLVQqFs6trq0NjEAgEEg2IfyhgboVqSmWtsKik8OofJ2Nv36JSabqPwFTjT+IBVBqjpry4siifyWJRm9csUsrl1M6rYtTYUP/bts1kjwYcgH7XBuzlrbfeIus1Xbl8efOmTQ0CATm1hKen55KlS01NTWH9/fv2/bpjR1Bw8FuTJhlsvKK8fNmnn4rFYjd39ymtZR5IpdIvli/PysyE7cA29dMt9/z227GjR+GQQEaM0BvWIZFIVq5YIZfJXN3c3ngiaIxk7Zo1pmZm3t7eHbxoIpHo4oULLDZ72LBh/3BLLJfLF3/yCdyIbb/8EoZKWSAQCCQa/uEqQUWjVQnleYXF+Xn5melp9dUVTfW1wvpaWZNQpxh0fr/+X3Q6A35abpPaqXUPYaet1l7EcTXHxNTKv+ulW7GXTh+Pi4sjT4dGo/n4+Kz88ks3N7ekxMQd27dnZmYymcyln35qMPiirLT0k0WLamtrwfAvXrKEw+G0tGefL1+emJiIq9VsLnfx0qW62gwnjh/ftXMnGXSZPWeOfk7ot998U1BQoG5juEc7fPftt7du3jz1xx8dv2gxMTHbt22DY1PI5c/bP/L3o1QoiBuNamwjEAgkGv6ZqHC8tEGaXZD/MCU1+1F6U12tsK5aJKhXyIh6DDQ6g0an/8NrHoOgUcpku9Z9I2sSqRRyMvwA5j8gMHDK21NACuzft+/K5ctwFmA7358xw7d5EevioqKlS5aUl5eDKpnyzjthYWEtYwzLly1LSEgA80+lUGALupKOp06c+Gn9euJC0WiDBg+O1MuL3Lply+1bt2D9wUOGREVFGXku4qYmkBqxsbFfr17dsmbU8wIH/MepU2RGyMkTJ94YN679Upv/c+h0OqFHOzYvCQKBQKIB0cnUSlWZuYWpacmpySmCyjJBdYW4UYBhKrAudAaTRqexOC8tlK0fpaA2+9+LigYqjmN1FWWgb3QjKsH2lJSUrP1xrbCxkTRFICZcXV0NvO2UlJQvli8XCATwxZAuXaa/957BxpuamlZ8/jkoBrKzY8Rrr739pDrT3r17f92+nSg+QaWam5vP+fhj3beOHzt2+NAh+MXcwkJ/eftUVFSsWrEiNzc3GhgwoONXGsRHWVmZvYMDjUqtrKwEEdOy5BQCgUAg0YBonZKGpuSH6XF37hRkZ4FQEDXUKeUyGoNBRBQYDJaxIXTtmAYNRWuIcZWa8OzBhdULSGiooAwIj1+jHf/wVCWAgdXQGBSis4PcCE5oCLC7GvypjqDCajQNjf48ZwZah9HSayc1BNh70oudNHmSftfDuXPn1v/4o1KpBMMPbv3ipUtbVmRatnRpTk4OqRgie/b86KOPyG1u2bLl90OHyF4JOPGP587VDeu4dvXqT+vXU7XrwXJ7e3tjTiApMXH111/X19fz+fy58+e3vzIcs8GhtsrJ48cZdPrMmTPhRq354YdjR4+2JRoUCoVKpTIYTiKXy1v21LQKmWVi/MylZOeRMbLyGWu2iKzQ6XT0miMQSDQgOkRRVfX9B8lxcXEF2Y+EdTUSUSMxcyNh5uksLq/9qABYcH27DlYfTD5OoUo1NDWdbc0387e3gZYanPVGQYNSKoX1wd7jTA7G5uEsnhr+ZbBxBlNDZ2h1AnyVrmZxSU1Aw1QUDU7F1cSPWkXDlMSPUsaUiRhSIbF7QmFQwWwotdC1wJ804jCebaL0cy9USqXM1FaK4zwaDfzvvXv2XIiJIa0+fDpv/nyDERPZWVkrVqyoKC8nFUNwcPCCBQssLS2bmpp++P77WzdvEiNLNRoGg9G3X78RT4o6xN279+WqVWA+4QijBw0a0UaxB0PrfvLkzxs3qrUsXLiw/Rk4iwoLMZXKp+361o+PPzs7MSHB3MJiwMCBcAqbfv45PT09NTW1Zf8LsG7t2oTExMWLF/fu0we++OfZs7AmqC57B4fIyMhRo0e3rBTe0NCQnERQWFDQKBTC+YI86hkVBSu3lXF5586dq1eu5OflgUaBc+zeo8fw4cNb1vw2MTODx+mP06cT4uPhF1BR3bp3f2PcOIOyXTrgbp4/dw5Otq6+3sbauntk5MjXXnN2dkYvPgKBRAPiOahuEN578ODG9evZGelSUaNMIgazTQPfk8lqyx3Tuv64ViKAKaXidAbOYIHVBzMPPziLizG5EiqLyuYGudhFB7i5mrCqSwsfJiWJ6mrkao2K76A0t1WZWmEcM0IZPM2OpD7ugtBumay+oLecSmiRx2EJYiWaSsEWVvNqCtnCKo1KyTazCO/alcVkVlVXN9TXN4klCplU64OCniBkhDEZl7gGP7xtU+KDB5omQXLcX0qlihzhCV8fN378a6NG6a98/do1cM3FYjHpvAYFBy/59FMPD4+01NS1a9cSZvtJ9ALM6qInRR0e3L//xeefE6kPVKqziwuIjGceVZNItGnTJlK+wLfANA4YNKid9bMyM1NSUowZi3HyxAkGkzl6zBi2lpEjR8KSY0ePtioaampqBA0NpSUlZ/74Y+2aNWSHDlBfV5f56NHpU6cWL10aHR2t/5WjR44cP3qUCDWpVGptgXD4Opj5K1eurFm7Vr9gBqkwQGndu3sXzpHH44HSSk5OzsjIOHTgwJQpU8ZPnKgf5Pjr9u1Tp07BlSGDQCwWC9a8dPHi2nXrWk5mBtpi04YNahw3Nzd3dHICAQGi5/ixY8s++wz1xSAQ/w2ozXPvEZ2MAsMSkpIvXrh0LzZWJZfIpVKNBuwrvXXXHBx9aPFxNXyqodIIfcDmqtmmGNcMftREqMAEZ7I1NDr8SDBi5W5Olq938fAypWelJt+6eqWwpERhao07+iitnJVcMw2TTdh+Khlk1lCohD7RkJ0R+rkLGvXjngscf9xJQaxArqghuifoDFjOEtWYVOQw60osrawnTn47JCQEbFt+ZW1FTb2wvra2slxQW90kbFTI5TiuJgZxMBhtRrOpVEypxFRKDo8HV4OMqMOS3r1f+XbNWl3WIZjAHTt2HD54kELGxun0rl27Ll6yxMXFZR+wZw8sJNUG7Ajs2Xc//PDKK6+QMYbPP/tMLpfD483mcn/88Uf9epGtAub/x7Vri4uKyGBGYGDghk2b9OcFNQweZGXt37//k8WLDUxyK3qxuvpNbXHMI0ePOmhd+bKSksmTJ8OxHTp82M3d3WD9JYsXg0V30hrdyMjISW+/HRIcLJPLExMTD+7fX1JSAl/cvHmzroI4cPbMGZBQ4eHhPj4+fCsrhUIBmunXHTvA0r86cuSyZcuePpAKxdyPP87NyXF3d5/5wQeRPXrAlS8pLj558uSfZ87gsOWtWyMiIuDSTZ08uay8HC4FHMmMmTODQ0LgUsc/ePDr9u1yhaJLWBgcg34nyLWrV1etXAl35IsVK4YOGwZaBPZ1+vTpzZs2wd2BzaJZyBEIJBoQbVJaVnb12vXLly5VlJWpFHK1GqMQYXJqy3ACkaKOw6dUnMlRs3kYj6/iWWDwwzbFWRycztJafUJSUHA1jaJRqjViFR7qZDmlu29fb6cHd2PPnDpZUFoudw2W+3STW7vgLCIizaRSFWBoicQFGpneSPwCwoCiAWOO4xqdbKA+HlanIX4hngecpiY7KTCyqwJ+oeFqEBGwnFtTwMq5P3rIIK6paVRULwqTXSnDqcQ21DKJpKlRUFtVUVNRVlNe2lBXo5BK4AGja7M02u9lx5QKj4AuK7/5JtTnsf+anpa2ZcuW9PR0spIVWK+oXr1ef+ONxsbG3w8dKi4uJpdrFQix5Tlz54KjDL9cvHDh22++IT+Fj+YvWND++EZY88CBA7t37iQlCJ1Gs7SyWr9hg79ewSgDcrKz1/zwwwcfftjTiLEYO7ZvP3L4cL/o6K++/lq3cPlnn92NjX399dfnL1zYUjTAR2BoR48Zs2TpUv2PpBLJ58uXJyUleXh6/rZnT/tJAw8ePFi0YIGpqenpM2d0nRTbtm49duSIj69vS0l0/fp1EF59+vShaFMoQDRUVlWBYtixc6d+Z0TsnTtLlyyBC3vk2DHd7GhwUya/9ZZYLF66bNlrzWc93bVrF2gdbx+fnbt2/cPH/iAQiGeCuic6n3v37sXExNz56y8iVoypwDwTaWn6uYREvwBYZfiApmZy6CyW1MJBYWaL8czVLBOcTqQOPHb6CUOOgYvdBLabxmJwOU041dLMZEX/LvOiw2SC2nVrf4w5d1bq6Nc4fLbUyQ+8drDxIC8UGD7Sz+FRjahYKGXRnlprKYYN8rKvFMly6sUs+uMWXPPkF5z+eE21tp9CX9lQtCEQ+BHbupt4d3MMMD20/pvC/IKp775Dx5RCqZJOozKYTFsnZwdXwnVWymWVtfWVpSU1pQX1FaWi+hqVSkmjEeGHlv0XmErp4Ok7cek3Gi+3QjmuKis8efTIn3/+SZaYJGUBOPRg1H9atw4cd4pewUoyZWH02LGkYti3Z8+OHTu015i47BMmTmx/Ls2UpKQtW7dmZWaSIoOIWLDZCxctakcxwFdWrFgxZepUYxQD2FHw4OFJGDN2rP7ycePH37p5E56Tae++2zI/ANSAo5MTHIbBcp6JybLly6e8/XZ+bm5ycnL37t3b2XWPHj3c3N2LCgsrysu9tTkitbW1x44eVapUCxYtahlEGThwoMESQriMHWtweL379IFjq66qKioq0omGO3fuSCSSoKCg11rMk/7uu+/CFch89AjW9/LyQu0DAoFEA+Kxebh29eqfZ88+epRJo4G1w8ggjs7DxsEmQUOsVuEMpopnqTSzUZrbyU2sHJrKWY7edSoGU4ORkkJDZ+AsHs5kw4+KzpLg1MF+zmOCXFzMeQ9rhFEu1v1cLe/cvrXmy5U5tUJ538kSnx7hrjbJxVUUlZK09QqVKsja1JrDzEoUsthM3QFwGfT3wt3XxmZryA6Lx5qAolTjYPVpumCAprWgFBwVnSlX436+gQx/2xK//sK/Yny8vd6btyixoEIqEsokYgW4qJgUTpmhzTAws3f26xYll4gbqsqqivIrC3MbayqJQSI0Op3J1F0Z+IXF5mQn3M24e70iLzsr8a5aqdRouySeqCwNGLz6+nqK3kKdYhg8dOjSTz8VCoUgKa5evUqGH2D5kKFDZ8yc2ZZ3W1VVtW/fvjOnT+tLE/gXvtJOB/zly5dXf/nlhDffNHJeb1hf1NQUGBwcodebAHTr1i04JCQ7K+vihQuTJk82vNZU6sBBg1otQmVvb9+3b9/r1649TEvTFw2gpUCtFuTnN9TXW1pZwcX3cHOz5PNLaLS6ujpSNMBX4Ezd3NxCms8h3iq4dkCOm6try48cHR1rqqurKit1S5ISEuDfwYMHS6VSvHk9KHKoy5VLl+DYkGhAIJBoQBDmB5p+8IzB/dIWIWg2CRS0oeBJwy+mpmaYStXkHCi3cce4ZkS/gwacdxq1iWpHx4rpFjgLVAKX0AqgH6g0Mu9BosSW9ff/KjqA3Nqr3kQyf8bDh/NnfdjoFCgeP0thbisVi4PMmVwXq0t51WZshtbKUlh06kg/h52JBZonQQOJSj3Q0+5VX4e1d7LVusrTRPhB7WVpIsfwOqmC3mYnApHiQKVolEpVpA1b1FBf3vU1Fodz9OD+7r1eiRw8uEpIUWNK0A1ikbCpUSBtEsmkUiVslEpEIJy8/F18gxRyGYiGivzsspxHgpoKpUwG0oFOZzCYrNKcjLyUeMLGMJlsDrfVnA8Da6Sbnnve/Pn37t7d8NNPlZWVZOYjMGDw4FmzZ7ealCASCk+ePHnq5EmBQKArgE3Wm5oydWo7amD3rl3wM/K11957/31jIu0Yhp04fhx+AX2Ql5eH603nAaoJLHdWZuYfp0+PnzBBv9CTRjsSxKHt0aEuzs6wQk1NjW7J0aNHf9u5U65QkOpHjWHkqFfyakgkEnK1BoEATLh7iwTG1u+39sqYm5u3/IjD4cBmG4VC3RJQbHCy27dv36YtedksXAEHIJXCV4qKi1FbgUAg0fD/mqKiojN//BFz/jy0y7gW/TYXtIJajfNMTJzdvYIiIqXVZRfzaySe3Yg4PzGCkaZmmShNreokDVFOtg/ofnK5jBi9qBtUqaE0KdWDPG10ikGHm4szd8T0TMsANptNV0jpFDyrrumjHt43imqJeIbWZa5sks/vZevJN6kSy8meCEytmdzFlcts1hGuVGusuKz3unpsjMujaJ5d24lKo3WzM4mJjWdp+IKwoXhj7dbvv/mhSwTDzIpKYVhYWfGtrTS4p0qplIqbKmsbquvqZU1CuZSwW2DJbJzd7N28gqKiGyrLSrIfluVmCuuqNbiGwWLxzC2Mv/JE5Ss6HXxusMc/fP997J07ZMCAjBaAy/vejBkOLQYQlpeXnz9//tzZsw0NDfr3i/zW62+88fbUqa0WXaivq1u7di3sBRTDh7NmtZyTs1Vg/eKiIngSjv7++7Hff2+mhLSmFfZbVlZ269atwc1jG7BcJpO1tVmVtqykrmzD9WvXtmzaBPcdpEz0gAEWFhZgv8UiUUlpKQijlJQU3V4Z2mnNRSJRBx97tvYS4dpBK/oCzsPT087OzmCqM3IoLJPB8DROrCAQCCQa/pty4fjRozEXLoB1NJAL4OepVEomi+3g6uEd2MXDL8Da3oGOKfc/TG9060JncdRsEzWbp2ZyNHQ6zuDU86wtZAJfF25KqYjLMJxXwr4WbPkr5MAHHWaWVt69ouMyKrgYEcPgMOjx5Q2+VmFvhbjsSS7mc5hgngRylQmTMcDTdndSEYgGOab2sTYZE+CE63mC8EuTQrVueBdcQykTyiy5zyhsrFTj3rZ8V0yYXN7AtrOmqjFxrzfSTq2N+f3gG/PnNSnh3B8bDDqTybe25llZm7t4K2QSSaNAWF8rbmxQSKVEEgWDae/u5eDp06XPoMrC3KL05MqiPLlEzGAy4SMj/WAQDZmZmTdv3qQReZ2P61WDZwx2fcLEifolBxrq69MePgTjejc2Vk4M7mh2v4hSE3Q6uPuTJ0+2aM2xvvPXX+vWrQPdMGLkyPemT7exsTHyITl27Bhsm29pCYbcwJRStHH7JpEI5MuJEyf0RQMZw0hOTm45lRfJw7Q0OH2w0LowAxz/BzNmTH3nnacrOTj4+PkVFBampaXplnl5ealUquysLDgXa6PPorWgk072PFGx7u4JCQm9evV6f8YM1DggEEg0IJ4CruGhgwcvxsSAw6dL4CcbUWiRcbXa3NLK0z/ILzTc3tmNyWLBEjMzs4yUpGSrQLVbEFU7nJIs1EjFcRqmUJrbVpc/6BPBflCsaV6Ih8phMTLi7jRUDrJycjM4DDO5ULdrGpUqkCnvltav6B908lE5hpNjJglG+jmCjIC/pSr164HOFhymAnviXlMo8K0xgU4fdPMaeegOg/bsAk1SJTbU17G6MKFMSSUi1GoVxuaJIkfdvnZ50OT3mDxTnWjQdtJQiBwOKoXNM+Wamlk7uymkEnFjvbCuRiyoB4lApVFBWnl16eYRFC6orih6lFL0KFVYW00YcSbrmTUNFQpFdXU1OUW4bqGHh4eDg0MJUFxcW1tbUVGRkZGRl5srEAhgs83u1xPLzTMxGT9+/KhRo1oWTYLt7961K+b8eRAZ42ClCRMcnJyMfE7S09PB8PMtLHbt3m1vb99ymBIx1rGkZNqUKWkpKelpaSGhoeRyTPtcgb6Br3ft2tXgW7dv3YLl4Lv36NGDoh2VWl1VBetH9uzZUlfdvH6dyO58MsgiKCgIrk95efn+/ftbZlkCGenpQcHBz7zycm0UhKc3HwfIhWNHj546eXLChAnmFhaolUAgkGhAUOrq6k4cP3761CmJRKJvfjQaHFMqwQjYObkFhkd4BXUxt7DENTgYJDO+pbW9o4ON9bmMwkZ7e3OQC0QxhqdGjgqrWVinZgs/YUlszU1lUimdppsEQiNRYg5durN4hsFwTDS3ybIAACAASURBVCa5nV9JoVpQn7h9dBotJqdyZjfP6V09NtzL1SmAfu42nnxeiUhqyWFOCW2mPGQqtZMZd/PI8CqxPLFCYNBtAcoD12jYdJrmyZ9EsiSDMcqFd/xihoYfRtSTgP2q5CqP0MzcuLzk+LCBA2RYM3+USoz8JHImyMrUbC6XY+pm7eQKikFUV9NYWyURNSqbFLBZS3snG2e3gB59S7PS81Mf1JaVwFVlsNjtGzADSwx/gmOdmppKfktbrJJKVkYyiC6QNhtWcHNzGzV6dP/oaKfmVQsbGxvPnzv3+++/NwmFXC4X5MKw4cPdW9RUaAewoCwmc/DgwWTt6lZPBPY+YOBAMO3HT5zQiQYyuwJYunjx6m++ierV66liuH179erVoBjeGDeODKUwmUwrKyuQRFevXg0ICNC/FGt++KG4uBhUhS58Al/8aM6cT5cuhcfY2tr6rUmTdH0xIIW3//LLjevXf9uzxz8goP1TI6+qfh9N98jIbt27g/qBw/t69Wr9MpSgUX7dvt3Vzc3IRBAEAoFEw78euVx+8sSJw4cOCYVCXK3GdXIBx1UKOYPNcfUP8QqL9PL1s+BxoD3lmZlZ2zvwrW05PMIWi4VN8U1UFotJ0eAt7R6VxcmnmmuKMkYHD9gV+5DPedyOyzDckcdc8940U74JiAk4AL6VJY1Ky8/McHDzXDFh8KILaZUiqQWHiOdzGbTEisYGqXJZ34ATGeWljY9z3yy5rEFedttjs18L9+hi/9QFhFPANJq1w7q4mvP2phTVSpR8ztN+AZFCBXrCyYyTWdcEhrdJobLmsW14rD7eTpZ1hVeLG1g9LSmYgjx+MFx1joG5GQ8jhgxoYV0oLBpFqtspmG2t5ebwTLmeZrauHuJGgaCmQlhbo5BJwIizubyAnn29QrtV5GfnJseV52fjGMYE6WC0sdGXES17BPTNHti8vv36RUdHh3Tpol+gqaig4PKVK+fOnRPU18N6Do6O48aN69O3r254oTFUVFRcvXIFw7DRY8a0v+bEN9+8dPEiWOvZs2bpwhhweCNGjrwfFwe6ITQ8vIe2BFN8fHxCfDyohLCwsBkzZ+q2MPntt1etXHnk8OHampohgwdbWlsX5OfD05KdnW1mbo6JRPq5FHAi8xcs2LRx466dO2NiYvr27cvn89PT02Pv3CFyJN3ddZ0vz6zfYjCMZfnnny+cPz/+wYMZ77039vXX/fz9m0SiO7Gx586eZTIYQSEh8BLxeDzUmCAQSDT8x4E2fd++fSXFxfreKikXWFyed3gP3649wf6BzTPlsWzs7aztHU3N+TQ6BVdr1JiaRaMXNzRV4SwmFW81zxBcdrlL4PXYe+8MfuNIAhu8cjrhyVEUavW6YRFB1kQQeN/uXWu+/cbc1ATMZ4O5k3jg1Iv9ze6+33/6HwnX8mvMOUwmnVYllt0oqh0X5Dy/l8/iM4k613aUv+P2uLzJzcMMSpnqw1d8J3chFl7Jq3kS26AocQ1IBNAZc3v6fP9XlkqtwXD1O+EeC3v5elqagALKSklWuARiarXu0aGpVXIbt5L6Wlz52AfVDzYwaK2MhMBxNTHxBZVqbm0DPwoPqaC6UlBdIRE1qhQKBpPpERwOOqyiIDs3Ka4s95FKLmOyOcZPwmRMyTJzCwvwtsGuCxoaqquq6uvr0zMyUlNSHj5JAiBi/pGRw0eMCA8Lc3rO2RMOHz4Mbn1YeLhP87m/WxIYGNi1a9esrKwDBw4s+fRTXbChe/fu4JpvWL/+zp076Q8fkkaazeG8/vrroBj0re/gIUPgUH/bvfvGtWvXrl4ly2v6+vr+8ssvsM1E7aSgBjLFzdV1165dsNNjR48StwwnomIjR416//33yaoMcAGlEgmDTm9VeMlkMjg7lVKpv9De3n7b9u27d+06e+bM5p9/1g1jAbE1YeLEMWPHMhiotUEgkGj4TwON9Z7ffouLi9N3Wwm5oFSwOFzfiCi/7q9YO7pCy8jmmVg7OHu52Jvy2KAr1MQ0AI/tFpNGKRDKRErMhMNudS9gdCkOHtdTL8ypzHmrm8+vsRnWPJZApgQzP0lr6QsePdx6M1kxdp5ELlKZWEpdAiUaxluHY+/NHHB5Wr/Prz7cdD9PAQJFQ7lZSIiGD7t7bbufXy973KZ3c7IcEeQMOkDn/UtUmLeD+TeDginatIb48gYuk3DlhQqMx6SviA78Mjp4zrmkB2UNDDptarjHrtFPawwEhnf9XmXyYUyahs2iPhE9anPrelmdSqqgMtgavc4XUA0MKoXWhttKpCNo7RmLzXHw9LZxdhPV19ZXlDQ11MvEIjqD6eob5OwTUF2Ul/kgtjT7Iaz8XNKhfVVRUV5+6OBBwsTSaITVJPsynszlaGpqCsa4V1SUr7+/kXNj6uPj7T3n44+fWbuaZOHChX/duWNjba2/UCQSOTg4rPnxx7y8vEePHtXX1Tk5OYWFhraaVDFs+PD+0dGPMjLKysrANnt7e5NdDBKpFBSJR4telahXXunZq9fDhw9zcnKaRCJiy+HhsDvdCiwWa/bs2UKRyLW1Og0TJkwoKCjo2rzyBMDn8z9ZvHjqtGmw2bq6OjaL5eHpCfIFyQUE4j8DKiPdOg0NDQf27z9x/DgxcvKJowa/E50RTJZrQEhQVH9rRxcanW5izrdycjWztGYx6ZYMDdgfgwtqzqbvuJ+75maaBafNcQE4i0ePj5lrr5j2zcae2y41yZXmHObdGQO8rUxht4tWfrOh0dbEw49BURPpk2olDccFclVfd5vL0/qy6LSz2RVLLqXlVAm7ulnHzhjAZdB/TSjYFl+QMpvIycc1mkKB1NvK5MlZUKL33Fzax3+kH9EpHpNb9caRu0waTazAXnGz/mFIF9jsr4mFH55N5HM5osaGYyMCx/UzNH6Ddl65UyU2fZIGIVFiIzRl38+ZoWbxcLz5iDsKpV6uUWmeOZZTm2RAp4P9bhLU15WVNNZV4xhGZxJ1GzQavDwvK+vBnfK8TDgBBptD6aTnVidBHpeE0uYThIaGDhgwwNfPD35aLVTwUlm8aNGDBw/mL1gwbvx49CYiEAgUafinE3P+/O5du6qrq/WzHTFtjUIXv6DgXtF2bl4MJtOUb2Xj7G5iwScrBOAqjEqntjRlICLqpfL23WMqptAE9Dx5YfN7xRkrhnSdd/jWJ739tIqBknDvXgJmNnFQr3t5ZWUiGYtO5zJpGiqVz2HeKqyZF5OyfVTEaH+nrg78hRdTT6aXJVc2vuJqPSXMnc2gk6mI4EHrFANxIjj+Wd+A4b6P3cpr+TUKiZJtzl0RHbi8XwCHQU+qbPz0cpopi0GlUVlqRfK1mJaiwUIpwjV6eQZUGs42pbZaSFI7gIJihIl/HHgg+ixszaxsxI0NdeUljTXVcnETSAe48s7e/qU5GY/u3awpLWKy2AaJjS8ccngc79FO8G1vbw8ue0hIiLOzs5e3N5vN/vsfP/KQkJpHIBBINPzTKSoq2rZ1a+ydOxS9/giwZGqV0sbZLbj3QFe/YHB8TfmWti4eIBfAFhIzUWltIo1GaWkcySUy0BPt+7vaCH+1S9iWzVt+2L4rNt/n3a4epOTYdTs5nun0AZt64q1ecaX1Rx6WpVY3ylRqLpNuwWX9mlAQZGs+L8rH1YJ34s1eq+wy4kobQDTwmPR3wltP9WfSaTrF0KTEzmRXdPew2Tiia283IjwuVmJzzidLlJg5m4lrNCxT/rW4czNzs919n87FcOLg/gdZVTy3UIpaqQsn0FitdxyQooGYlMvIXoUnfRZmfGszS2uJsLG6OL+xtoqQDgymV5dubl5+koK0u3du19fV49pRBh286eQgC3Nz81deeSU8PNzK2trVjeB/9RDK5XJ6G8kECAQCgUTDP4UjR47s2rFDV4tXa79wlVzONecHRQ/z6dqTZ2ZuYm5p6+oBogFMlRprPr6wHbNkhMGkqZTq0P5nzvw0LObP38ePIr+Qm5n1Z42GZme6OS4nrVKwfVTEvCjfW0W1pzLLr+TX5NWLNbhmyeW0EHvzgZ5EysJXA4IbZErjTxm28E6Y+5I+fhzG446GFdcy4krqrXks8OKVGCahssodgyViMXx08sSJyoqKzMT71wvrxEM/YOjlLuC42tTcHLx/RQvvH06d9kJJCKQaMzHne3aJEDc21JQUNtZWS4QCE3ML/25REaEhDxKTQN6JRCIcx19AOpDzVsDX7OzsukZEhIaGWvL5ltbW3t7eRhZ8fElMmjSpQSBAE0kjEIh/ICingeDRo0dbN29OTU3VHx+BKRUUKs0zpGtI74GW9o48MwtbF3dzK1siV06NtXCPKRwGxYrVSveEKZv+0+1Hv9zLNOc8o9Yhzuaxk6/1qo4/eOwEEcagaL7YeeS7YoqlmSnsQKRQgff//eCQD7oTs/6AOLheUHM6syImt5JOpV59t1+4A/95T1ylxpn0p70MJzLKJp24z6LTiAJQVIoH32Swl93Urp69XSyvXrwwd/aHsFTjGtDY/23Mwo6KPVUnjVL5RwGWy8YNEcjULQQTpVGpEateUDqQ0Mn6x/W11cX5CqmUqhQHga5hsxsFgri4uAcPHkilUt0sEu0LBcqTxAU2mw36oEtoKPzL5XJNeDx3T0/HFpWnEQgEAoEiDU85ePDgr9u3E9NK6UUOlHKZlaNLeP9hLr6BZDVDK3snKo2mxrDn3T7YZB6TrjGiV5+mlAt9uissKGQJv7qqykPZtRwbb4rWp7dgMxVqfNafSX8V160fHmZnwh4f7AI/JULpwZTiqwU1LyAa9BVDfoN45tlETKm2t+L0drN+PdB5oKcd7AU+qiou+OrXA/XDPmSZWcqsXXA6k4Y1i2fQqRQTNvvlyU8y18HCxs7MyqapvrY8L1sobeQqFDwTk1dffTWyZ8+E+PikxMTGxsYnGu5JTUy9iTTJikkWfL6Hu7uPj4+HpyefT+SjgHpwdXNzdXVFpYcQCAQCiYY2KS4u3vDTT2Bv9Os1EcWGMVWX3gOCeg0ws7Th2znYurgz2CwcU+PPrxhIs8Xnso3q0dfgcpzSf+I7IFPgL76t/dDIsF/Ta9g8Nk2bZMii05gc1sHUkrRq4eYR4f08iBkv3Sx4y/sHdvBSCGSqeTEpftZm0waFDPexJ3Mwq8UKQq0o5Cu//jbFPpwW2FOllFPVKmKMqP5Rw2NEp7s72GL4y7xb2lwHsPF8e3sbZztuTTFWW15bV69QKMxMTYcOHRoVFZWVnZ316FFdfb1cJiMnpwBBwGKzzczMrKysbG1sbAE7O3KqJ7KmoYuzs6OzM51OR20BAoFAINHQJmfPnNm6ZYtEItEFGMi6wg52tr0GDuN6BJnwrW1d3U3MLUBRqFXPlgtt9fOocYoNj83RBtjbrzGg1mj4bMYQ78dVAUqLi3e82Z/PT1l7N8+MxWDQaaQDzecyM2pFIw/FLu8X8Gkff1pn1C1olCuX9wskcyGBcpHsYY0oytUKbOna7789KeLRe3WlS4VtnTiTRnGzs8Fffk8XMQJWiZmYMayc3Tx9PYqKikD5SSUSsPqWlpb9+vbt26ePTCqVSKVqtZqmnZWbScy+TSfyU7SzVOA4Dkusra0dHB2tm5dGQCAQCAQSDS286sbGnzduvHzpkn4vOBma7t27d79+/erYNtaefiAaqBQqpsI6uDvwv+3MuFwGnZi7gfqMNT1M6GQJSODbVSuCQ8PWLFlqb26y8npGkwJjExWICM/elMVQ45rlV9MfVgs3vhpOdiJ0BE9LE/ghf79ZWFsgkIwJdOKzmfu3b/k5LhcbOI2hUrSjdSxZDBMmHWtNNGgolE5Pm1FjFJFMTeHRPLQUFxVdiImprKxUqVQcDsfWzs7Z2dnKygpurkwmUymVGI0Gy81NTPgWFpbW1iAvUE8EAoFAINHwbFKSktasWVNWWqobIkEGGGxtbYcPHx4SEiLlWvv4BoNUICZsNN7caW25pg2bam/GteSxK0QSOqW9MLgS1/iYMjgMQllUCiV1fNeaivKKstJFvXyjvRxyahutuSwTrVzgMRnmbAa4zlKVms3oNPsnx/Bj6aUqHJ8S6g6bPX1o/6rjV4UD3yWeEk2bfQ8qNe5sy3ewtFC12j+hoXR6rwXcFt2uKsrLN/z004MHD3QVrMl+B28fH9B/ffr0sbSyIhMXmEzmP/axlEgkIG7oDAaPx/v/0FdChnzgTulmzPp7AFkJO4UnoVPqiiIQSDT8xyFzHtVadAEGaES6R0YOiI52c3ezc3YtYhLjI9TPH2DAtbmOLUsmg43nc1gelqZFAjGrXXOAYZibCYNCJ2xbhVhxwyGqKu9W0ewP+g0dMXvO7Ah7s5drt5TYyUfldiZssorD+dOnFu05XdrrTRqVLpfJiFA/jaobmdn8BHEPSx6HSRcr1a1GGnDjizQYDVWrlMRNTZ8sWlRWVmYweZJMKs1IT09LTb13797UadPIWaT/aeTl5aUkJ6ekpFRVVtbXE8kZDAbDytLSxt4exGtkZGRwcPDL2K9CCzxsUqlU34pbWlq+1PKXNTU1cL5ApfZ8yXeQx+Xa2dv7+vqGhoUFBQXpT4/ZWSoBnoT0jIysrKz6ujqRUIhrB87Y2NgQxbPDwkK6dHmBMuFGIhKJBAKBgQrE1Wp7B4eO1w2DUxOLxSA3iUngaDTy3jG0uvPFjhPeUTaHA7cADthEb97zZ7R7OA6vocEbLhWLiW5fbTxPV5edpg34vQyZSE47bHBGsGOuiQnsrtVZ6c3MzP6Gd9zgwOCo4E9rKyvTv2XvL4n/L0Muob1Yv3797Vu39HMe4d2AN23I0KERERGOjo7+AQHFUryGQRPWq40qYdjcNML7YcOhMlori2jOoa+7laEdddnOC0NtEIs/9+d9M5WYF/HP7MpxJ+I5NKpl3Gle8uVe/aM/W7HK18+3XKxIrRDYmbLDHCyYnRpjl2NqBYaTta4xjGhq67i2Gq4JKAahAsttECdVNMaV1avUuEEWhVCu/HpI+NRuPkK5ukX8hQKL6uTEvBidKBtMzBlsqTLClrX3t992794Nrad+cwC3NVg7p2JlRQVhF6lUEA1zPv7Y29v7H/I03rl9+/Tp0w8ePNCFRnSvITnJE2nFu0ZEjBs3btDgwZ279y9XrkxOSlJhmEwm079uvV555dvvvnsZ5wtW+/ixY3H37oGRI85Oe7aPR7g8OV8wLc4uLkOHDh0zZoxdZ1jx6urqM3/8ce3atdLiYnI4ErFH7V51OyWDUn379ZswcaK/v3+nn/inS5fGP7nLOsB2zps/f8zYsR3c+IWYmG1bt0rJ9B0ajQtaQauH+kdHz1+w4Lk2tXfv3gN794L6Z2lhs1izPvoIGkZjvguSfe7HHxPvoN5pwqOlr+MJuQByUKMhRQM0tj6+vhHduoWHh5NZyR2hvLx83ty5CrlcvzUGtwEOAHbK1CaTGbTVdBrNzNzc18cHGoqeUVEvqZLbls2bb1y7JlcqqXpHBb9ER0ev/PJLFGn4R5OakvLdd99VlJXp5zwCAYGBw4YNI/vFoZ0C81bUiNF4rOdVDKR1xImeCGJSx5bfVuOUMEcrFoPeXmFEKig4Ckf52PnLqxPiKiWDxxX1e5Nh6/Tgr2Mzpkz6cP7CCW++5WnL3/UgZ/nVh05m3DcCnV/zd+yUXEgOg64LJDAYzLDwrnBGmTWiJIEqvlyQXiMsFUJDYJjLqY2jMEPsrZRtFDCEc8c7VTFobx/FjEcHWXD02LGWlRPB2RowYICnpye4tjXV1SUlJeBozpk9e+wbb7z77rsdb6Q6QlVl5caNG2/fvk3Tlh5vR7LDdU5LSYFH9+LFi4sXL7bXm02qQ66PWAxipWVFLGjWE+Ljwah3bmErhUIBhu3UyZNk/lD7hTTKy8r27d0Lln7GBx+M7ZhNPXXq1K5ff4XThL1qtDG8ttZsamq6eOHC1cuXx40fP/PDDzvx8YC9g2KAK2Bw1vB83o+L67hogJslFAp1ilmutZrw2MC5T5k69bmSfOG7SqUSU6uVCgVsAo5QIBAYH/AAdQ5Kvdn0ti0ebH2FCq8kPIQHDxwAaw3XYfSYMcYHNlp9xuDJafUAlMo2K93V19cXFxVdvXoVvtgvOvrtSZMCgoI68cmHR+7GjRvQAqn17j4cFbxo8fHxUomE14FTRqLh5XLqxImff/4Znmz9Lgl4UAYOHNi7Tx83V1cPLy+ypaiXqhmmLLnsBbvg4SlV4RQOvRXFoVRrAu34jmbcarGcRae1EaugMnCVBftxeLZGoiS8c5zIq6gL7M8xsxX/dXzZ4k/O/vHH8s8+XT+s+92S+jPZFWB2OtEey+UyUAZp9bKsuqbECkF2XVOJUCpVqbWSgsak0+gtuoKVOO5jbeFpba5sLaEB1sa0vTadKxpodIoNk3pw554mrfFrfhc00Ijs3bNn4ptv9oiMhKbT08sreuBAiUTyMC1ty5Ytr7/++v8q5JD56NEXn38OHjBYMuxZET5inIj2iY27e3fORx/9uH49yKCOH0NpaamgsVHTwnjD2wFGLicnJ6LF3JUvDLSYq1asSE9PhwbUmIgmqSoaGhp+XLOmoqLio48+erH9rl+37vSpU8/UKPo7hdM/duxYdk7O9z/80FmB66zMTJl26G/LSw3XRCyRmHbMbNAZDH3lpx+sunnjxnPNdkZ7UsWEDHzh2qnSjVbwVCaT+cxb3OqnpSUlW7dsiYmJmT9vXvcX7UOE9hxUTqsS3JinDr5449q1m9evvzN9+owZMzrr4S8rKwMPoWWxWthdXV1dQUFBSJcuSDT84wCZuXHDBnBcdKMkiHkQ6HR7e/uRI0cGBwe7ubs7OTvr1q9T4EwuXSZ58bw9FZHX0Ip9VKlxR3NuqKPVuczStkQDHByuxoTCxwJfTmxKIwH1r9FwGRjHJzQgOKiXONffxpRCZ8L5vOJm/YpbJ48YlMsVxxNzbtQoHpTWirR9DWwO24LDbMfkwwH2crPlcxkt+yaeXJPnmXjCqDaCrpLjJWWlhw4cxFuboIGoHSkS7fntN/h3/IQJoAhLiovpNBo4NEwGA1o3spP1b34as7OyFsyfD44+1uKYyckvKE/6KQxaGRWGVVZWLlqwYOu2bfqP6wsKl8xMIsjRqhGi00FXdZZoAD946ZIl+Xl5+p1HlCd5x9Qn6hPXvpv6p0xMVk6lHj540JLPnzR58vPud/PmzX+cPm1gQnQ7NdAK+s8MHGdqSsqKzz9fv2FDp+Sipj18CNtpGeSA/dbW1ubl5r6kSuFwLhdiYp5LNBj4ArCFv6fLn/DCcbwgP3/+/PlzPv548ttvv4y96J9dq8IC7hE8Hnt/+62stPTLr77qnPc9O7st1QJPRVJSEhIN/ziqqqq++fpraAV0TRLZJRHRrduQIUM8PMH/9NKPxMIajUqKht6RR5NI6cfb1PKUgd5OMVllbbrdVBpVpaRij9tzOGgzNnNUgFOkk2WUq3WovTmPCTdryEu9aHw+f/mIqOUUSkWjOKWi4UZB9ZWCmswGmZpKM2UxWo4XhYM0YTL6eDqo8HaiL5rODTMwmFSGRrPvl61SuZxKo7flPsJNP3H8+P24uPfef5/snc3LyxM3NTk4Ov79eTygFVatXNlSMZDGycTExN7BgcVgNInFlVVVGq3ni+sdJOmdfP/99z9v3tzBtP+HDx+2tQW4LCkpKe900imvW7u2pWJg0OlUOj0sLMzf3x/cUzgvWCc1NVUhl6ubO81wBX7Ztg0UjH9AgPE7vXbt2pHDhw1UCFxkWOLn7w9+go2tLVgIcAETExJqamoMSo/D0cLyA/v3vzt9esevQEpycltPGhwSXOqXJBrgjB49egTqMDDQ2JpvBreJLLLeoSgIvfXR5Zon76aB8w3P5LatWxsbGz+aM6dTLoLuAMg9Ps630CY8UVs7DFJEXrt61crKat78+R0/gPS0tHZe1eTk5GnvvEP5d/LfFA3wun799dc11dU6mQ9Cks3hDB8+vGfPnh7u7u6engZ3VI6pZRjOUHVANFCIUDyYTxatlR4KuUrTw83W09K0VChhtzYGgaLBqUy2RCF6+hwTNRnlcWUNyVWNHAbdhEm3YDOteSw+h8XnsiyYVCu5gKJSODi7dHqRIie+KfyMCHKTyOTX8yv3JBddLWpoUlPM2Uz9KSRkmDrC0SrE0UrRmmqAFVXaC9K5QydYXEr8+Ss3Lp5j80zb97fg7pcUF3+1atXp06ffe++97pHEBN9gfcEJtrCw+DsfyD1795aXlxsoBrCgIF3fmjSpR8+etra2ZMtVVFR0/fr1o0eOSJvnXUOznpyU9Oeff44ePfrFHTu1GsxJW0F7uGLZWVlNTU0d9zLvxsZeuXxZ3XxIC/DqyJHgTRr0s1SUlx8/fhxOGVbQHRsZgdi5a9e6deuMj238vHGjgXsHRiI0LGzGjBndundvJuMkkqtXruzYvl0oFOpfZzhmEA0jRo60s7PryBUQCAS5ubkG0Q59VQT+zEt62MhaqDHnzxsvGoixBgbBhg7MOw9nOmz4cDt7ezNTU2h1YVNUGk3Y2EgkGJWWwmUh8gE1GoPOfrgLhw8ehKbszbfe6mBcAbY2Y+ZMDw8PrS9GM+XxyExYUKKgy6FNSElNhbcJ2geDiBQsOfL776/07t29+dPyAmRkZLQlGeHBhhet0/OHkGh4ceBtWffjj4onk1WSkUlXN7cRI0YEBQZCM21tY9OK1tZQaOD6YB3yQXENRYFT2PRW6juocNzBjD3Ez3nrvczWRQMoGwZD0CjQ6mAqnUqVyJT3SusxXFvKUJtLqJ1MgQxUUOF55zbVvmev/uztMZTOEA1iJVYrUdiasHl0cOCp2uEgFBMuZ1SIJ/wklNX99NejP3JqMCrNjMV4YoTw4QGuZmy6qLW+CWiFlBhxTWidJxpYbEZNWf2ZnRvpdKZxd4To5UlLTZ03d250dPRbkyeHhob+fVjdUgAAIABJREFUzQ9kfn7+0d9/NwhTg2J4bfToBQsX6mfewYPqpWXgwIErV6woLCjQt2fQBh3cvx+E7wsPWisrKystKWnLkkFbBqYuPzc3vMM9FPv379cX5aRiWLRo0fiJE1tRqM7O8xcsCA4O/urLL/V7Z+DcY//6KysrK8C4YMOfZ8/qRnLqFMOgQYNWfvklg2HY0JmYmIwZO7ZrRMTCBQuqKit134KLAE3H2bNnO9i9DZdRP+EGjoTL5YJSeZw2gONgVERCofnLEa+w3xvXr384a9b/xCzBvZ4yZYpXG5lDNTU1d+/ehTeiVFssR19IgYzYsnlzSEhIcEhIB4+hb58+Pn5+bX0KPn5hYSHoA3hm9FUmmai4fdu2nbt3dySkV11dXVxc3EydawcN6e5Oo0CQk50d0a3bv9HC/tfq4u3eteub1avlcjnZCpBd16Acp02bFhkZGRIa2qpiIIw6RmGyaB0MXMODIVdr2qqmDBb0tUA3sMpYa2tA462gMEQgXrQzOwTamnPZTDmG85h08O8tOUw+h2kBP2ymCYuBEaURTDe+M2rDsrnOrp0zXgj29fXNzNBtV4bsvfXGgb9m7j2/4pd9W7duPbxrx41LF8Is2Ycn9ftzUq9IW16DVAHiSoERxzDUz1mm0rTh8VAUak2nZjPQaHTKue0/VZcUMIwIn5J6ERprMvR956+/Ppo169OlSx9lZPydz+S+vXsNMhXAhvWLjl722Wdt5eqDblj74498Pl8/9wIe6fKysoT4+Bc+EjDABo64wQEQYfO0tA6eL+wF3Gh9PxI2+9qoUa0qBh2DhwwB71D/fEmP+fKlS0YGUc6fO2cwHsTF1XX5F1+0VAw63NzcVq1aZZDuABu5ce0ajneoJllySopuTBNs39vHJyoqSnd2cJQgKTK1t+MliQbQf7F37vyv2mH9EiAG2NnZjR079tddu15/442WVx7k1Joffmhn1IOxLpBE0v4Knp6eny1fvmjxYsPhYNpoHLgZHdl7Xm4u2CBdtzibw+nSPIOBRqcnJSf/S43sf0c0qFSq1V9/vee333T9lNDiWFhYvDVp0pjRo0PDwgKDgtoZT4VRSEe+Y6JBm/fXVkBejqn9bc1e9XeVKFvpBRHKlEN8HZZ9/CFZ3Gl6V/e4Dwa+H+EhVRFq/GlYVYXJVOr3unrcfj/6g3BXps6f7jA2PNbGEWEhdubX82rPFtTvLpL/UM76NEv1SUzSzM++HDd2zKnfDw3yc46dPXxVHx+1UiGRKcYEuzubc1Tq1sdNqLRxl87TDFSuKe2v0ycfXDrNNXl2/Bzao4iIiE+WLJnz8cfz5s177/33Xx05MqpXr4ry8hVffLFs2TJoUjEMe9mPZUlxMfh8BmPWod2EBqv9Lzo5OX00Zw61eRoXiKCbN2++8MGk6yU0wC/OLi7vvvuuQaPZ8bD57du39ce/kdn1cP2f+UV4VR0cHAx0w4MWdQ5aJTc3Nz8vz6DG19Rp0545hBJahuGvvkrX2ylsBNzQvLy8jlyEh3raCwyju4cHiAYDPZT8ks3G+fPn/7HNtZmZ2SeLF3/wwQeEbtBvh9XqgoKCmHPn/p7DGD9+/IjXXjOQlXBIly9f7shmU1NT9V8rMEMTmuelwgOQnJSERMP/EpDVixctunzxIjnyh3Qx/fz9350+vW/fviGhoS4uLu1vobMq90L7JsXaTP3DcMpbYV62JoaGVihXvRXocG5qvy7uTqR4YdBoofYWv47u9vXAYCkx+hK+q2mQKv2szY6/2Wv32O6u5txGuWp3UuH+1OLOyuuzYDOPTYyaGOGuVuOWHKa5mSnTPUDWZ0LjuE/jXXot3bBj5pRJ6QkPvhza9dSbUQO97UYHu7cVZqASGQ+UTpvCSkPhmtLzUjP/3LGewWBRjRj7AM8Az8TE2ckJ3lgw0t7e3j179hwxYsSs2bNXrFwZHR2dlpZ27OjR7OzslyodLly4YJBtByZkxgcfGJM3MGLkSFc3N1pzewY+kFqtfrGDyUhP1+jN5uru7j5q9GiGXk1lXW9rR04ZpImBxx/etauDEXUm2Gw22G+D8y0sKCgvLX32TtPT9ZUKbMTExKR3797GHDA4FWrtkA1dgw6/wwZf+Ao0NjZmZWU9jbVQqW6uruEREQbjNVI622wYDA9JiI/Pz8//J7fb70yfPmrMGHpzmw1vy5EjRzoebDASEC6gLJsFPOAtS0vrSNQ5KzNT/1EE69OjZ08rK6unoSaNBlSp8cUwkGjoZIqKiubOmZOUmKjStv7ksN2hw4ZNmjSpa9eu4Enw+fxnboRJp6iU0HDQOvzeUuRqbbChtU9lKnWQvfmbYV4S5VNDJVfjfnz2lte6sVrLdfi0j/+YACeBiCiNsmpAUMrswaP9HW8V1S64kBqy9fKaO9n93G3oHegDMIhScBj0fa9HvtnFBQQK0cOHKelKKc5ky0MHNLz+yR8alynzl2xd+/1AF/ODk/tb8ThKdespkCBzZJ3VN6GhsLgMQXXDkTWfS5uEDLZRPfrQaN6Pi6urq+v1yisR3bp1CQ319vFxcnQE0yIUCh0dHceNHz9s+HBTU1O5XtmZTo9+Xbt6tVlenjZmPmTIEOOeJWrffv0M4rdlZWWVlZUvcDDV1dXwpujsFmzWy9vbytoapIOuLSN7W6HJe+FTlslk5eXlzdImKBTjhwnAnTKwrPBvdk7OM79IBAaaZ1H4+PpaWloas1O/gAAnZ2eDJIy83NwXvgg52dlNYrF+T7mnp6eTk1NLswHPZyc+b/oZpmT3/MULF/7hrffcuXPtm4eXQGyVlJSkdbibzEjAo+gfHa0/yBaaxLLS0vra2heWjJlZWRq9Fw08Fr6lpade9j085E0iUX4HnjEkGjoQCEpJ+XjOHGgNQTGQJYTh5Xzn3XeHDxsGdsLP37+dHk19WDSqRoXRGR21cqS9lGJtDhmQqjRTu3oH2fOlT6a3kCmxCf72fJM246gzunkOC3CKmdL77VC3H2NzonZeH3kwdtOd7CYFdmxilAffRL+FfW7DptZsuZ936lG5Sq3R0w093gx1FYBuIE8KV9MUUgqdjnUfXjJk1hcX4r/fvlfFoLU1oRecuwwjwiqdohkYbIZahR1Zu7I0O4NjYvrMHiQy7Y7Iq8KwvXv2QPMNxsPW1hasY0BQUFSvXiAjwPEFmQ9NNni37JdWIxI8+9LS0mYxcxrt1REjjJ86KyQkxMCIEiMsCgtf4GBys7MVCoW+JfPy8iJ3oW8vaR0Lm0NTSMxE0FyVurq6Gvl1aF55JiYG9ht00rNjjQ0NlOYJns5G17RgsVh+fn7NxBmFUlFR8cIX4VFmpq6/gxwS4uHhAXbR08tL32xIpdJcI/SQsU05jfbaqFEBAQH6EvDixYuSZ/Xu/28xMTGB5tqgbgr8eeP69b/tGKBBMGg8QftWVFW92NZAbsIroNF7Z8lhLMHBwc1eNBrtX5rW8O8WDXdu3178ySfQXpDVOWBJj54933nnne7anEfwJo3fFIdB4zCojM6YBxEeDKla05bJVKlxWzP2nF6BVNLLJ8o7KD1Y7QWc+3vYjvJ32HAvr+fO68uuPEytEtKoFCaL8evoiHCHx0GUxISEdpKP2oHNoAXZmU86cR+0yNrY7LwGMbnw8Lgeb4W6CKQK3dsEjR9NIVFxzTXD3gsYNl6paE82SbDOCTOACqQzKCd/XpN2+wrP3NyYeUfJip/wL1zeyoqKRfPnVzd//8FI2Nvb+2vhcDhyubyDWW9tER8fb9C7Dzvq27ev8Vvw9vIySBaDP1/MnqU1T2gA9UFWxgwPCzOov5vSgbQGqUwGz6FBE8wyWiTx+Xy4NbA+A277k58CI2LswsZGgyfDSG+BxMfXl6m3U3h6igoKXrjfSr9CA1xqG1tbB21bFBQUZHArEzuvhwK2DC77iJEj9UVDQ319bGzsP7wZHzJkiLW1tUG31IMHD/6GlCMSL09Pikaj3z8FB0PI0BciPSND99aT3oufry9x95s7ABRtR96/0ez+i4dcnj93bu0PP6i0Bf7gJkFz8+qrr3YJDQW3Rl/RGx8h4DOpYhZF1mFdTtVOuCDGNHwWtVUb16RQvxrgfL/Ua39ingWPw6RR4+/GTh8U1WYb9Chz4cn7alMrMwbViksE5xtkyi/6B74Z8tiBO3n09+TU9NXfdtMP8dHb7viHS/awStjV6XHwdqCn3fJ+AV9eSkuuFGy8mxvtaTcx2GWYj/3v46PsTbib7+eZg4igPk4TBQ0+v3dQpK+zuI0SkLCiREV00HR8pCVYfxaPembrltsnD3BNzYypRg1vO7RB8BiA5UtKTBQIBODrL1y48KcNG1rtVn+pY9LgGJr17lOp7p6eHs9TDdrOwQHaU/2RhEZ63i15qJdqABuxsrIiAwABQUGEwHpS60bX22pkbN/w+mujffrNPdwz+fP0T0+fPh18NTJtBQ7I3NzcWxsReV6eq1N84MCB6ieFkDXaQSWODg4vNuhOKBTmZmfrX2o3NzfyMQsKDHypaQ1KhWLw4MGbf/5ZfyTt2bNnhxo39dT/Ci6XO2DAgBMnTuguDtkNV1BQ4Nf2sMlOBFQdh8eTNg/JdErmEKnknLUvmr827E1Ozk5uPzMr6+UNu0WiwZCDBw5s27pVd2MiIiKiBwzQFm3ybGtQ5TOxZVMFStgaTaPpqN9JBBswCo9OYdFbSQYkxiJimvl9gtOrBKmVAq655dXYizfPn40e+bhuj0gkghfpcRAbU27Zd5hq0oXPZhAFoCiUeplyTIDTqujH06ukPYhbtm7rVz/+pGvj8gWS5ArB+OA2cz+FDQ1bT16Qsi22ThpoaUY0Z0t7+1/Nr4krq5eo1EfTS09klAXZmY0Pcpkd6UWnUncmFWhLR1Bk9dWvyEpGu3aXK/G2BBPIBYmqE8IMRD0uE+qV/fsv79/G4ZlQydrDLerdGji18LGoqcnVzc3GxiYyMjIxMTH2zp3y0tL58+at/+mnZ+bDdiJgPIoKC5v17tNo+tFjY2CxWH369CGDzGR6L/jBTc3j/8ZA1hpqltDg5UXOoezs7Ozk5ARtNNlKkr2tuTk5PXr2fIGzNjE15XC5YLCftps0WmFBgfFbGDxkyOAhz135FFpeavMHo6SkxPivQ7vxwYcfdsp9L8zPbxAI9M2Grs6Ef2AgjcHQPDEbcKmJtIaaGpuOFZLSIZfLraytI7p1S4iP193N1OTk/Pz8v22+FfIl5T7n9NzwkB87dkz/9sFznp6e/veIBiKY10l15cVi8SO9LEi4FPBokRO+g9MCv8MdJ28NrCMRizMzM3tGRf27jO+/snti56+//rJtG+XJtOjjx48f+8YbwcHBoWFhL6wYAEsOFZcoObxOuCbkpJciVZtpBgo1zucyVw/rZmfKUeC40LXL56u+/OPkicctoLk5qRjUauzXnzdeLmviWliRikGkwELtLbaPimBoHfn6ivKFq9c29n87qsfTEmafXEytEj/uPEisEGTUPq0yGV/eUCiQMJjM4d3DTmWUTziVRPZHcJn0H4eFame5JGatNGUzcurEK65nDNxzu7BRog1vaMQKlYeD3axxY9hMtqqtcRFUSpOqEybCptHpHFPa5X37/ti6hsnhwJ9wr8H3DQ8P79evX1RUlH9AAPgHFK0d1Q/g49pBephKRcSc3NwGDRo084MPQkJDK8rLP5o1K6fzupCfSWVFRUNDg0Hk31cbqHwuFi9duu/AgR07d/7yyy979u7dvXfvC5i37Oxsid6YCLhc/k/KBcKTZlCqGa7nC/dQwPsIT6+BsEtISHjZV5uIizQfO1CQl/diGaMdJP3RI/2sOl2XNmBvb+/p4UHTC4ODukrvvKohpCh89dVX9fcO/8X8vWMvyVT05/oKPI3w5Bjo6cxHj/6eA1ZimMEsNnDdjO9T06eooKChrk5fnYNheiofAwMN+qf+tnzP/9eiYdPGjfv27iXva9eIiJkzZ/bu2xdeS7gfL1wp73HUhUZzMaWx2JROmZSRRgyLoEiw1qP0sEysUAfbm38zrBsHx8QuQdXu3b769JMPpr/7++HDt2/fjtfW8JGLm/Ym5ksCe9O1FZ/kGCE1fh3dzcFUm7uHqVav/fG6ddcu3Xt48R7vZndS4Zn0Um+rx9mRv8Tnn8162nQmVwm//yvbwsKit5+bl7PdtdyqIfv/Op9DrBDlYjUvykckf1yxAmQEaAWxCruQW9WkwBQYbsVjfz+2b4i/F0b9v/auAj6qa+mv+27cXUiIhxABgrsXKKW0UKBIlbq+V3+1V+P1lQrWUle+0mLF3TWBkJAQV+K22azvN/cesr17N7vZ3WxC2nf+vzRdNlePzPxnzpyZ7hPLs0j/Sqe2twsTbC6Hy2fu3LRx22fvcfl8Nht6hhUcEvLo44/fuXDhpMmTZ8ycuWjRovvuu2/1ww/DZ9DEQINQHIOBTEi77rPPBALBkCFD4uLjwc6bd/vtcCLM5Afuvx8oRf8M1MqqKvQ8VEnkgMEHUiYwMDApKSk5JSUqOjo8PNyuYB2jy5QaXUFoMgpRALZNc+FccXS1FeZggOlOBGh2uPu1PktkhADNQmtqlVq9f9++/hdQlyl8C5ndRnOZRbqaqEYtfOP0fNKZI0fCBDcqYJ1ev2/fPqVDAU8Ow96gbGAMMLZpG4WKepcqw3Y01dVRK3ejxR1Xh5bnrl69SgvOoCbzTkpOpo3S3uzsxaTBJrzxxhtbfvkFPnh4eNx1991z5s4FrgDy1N/f3ynXDxRzOlvUQrFzsjbAFGjTGNQ6i63cqtRNjPR5eUISU6etTZ3dMWzuqXPn33rxH0+svPf+JYuzLl0Su7gl37FcweAyyRJGHBbzhdExHiIe2ie55ccfvq5lMwYNzfTiI6JzraH9n/tzOFyOl4hPXl+z6/qNk+UNlEFs+OZSSUlzh5TPSQrx53DZN9qVC34+/eZRQqa/OjY2LdBdrtIy/yRSTDGXrdTqBBz2m1NThwa6K/UssUTa7ctq9ISboVeMy8Dg8oEiGLZ+9MH2de8TjKHLZAGbDMwXImGXK0xnN/jP3cMjIDBw+PDhixYvfnj16kmTJnl7exNFfhmMkuLi5597Dk6BcQITFebtsIyMFStXJsTHP/v00yh3bF+jrLSUaar7ibROPj63ZOJcoew7R5uMIiIjjX8dHB2NigbdVDM63TVytdWxeyUkJNDT/BkMn378cZ++YGJiop6SawHJa+DftbW1/dnOoJvz8vKohqYfyCbKPo74+Hia2nC6rQkKGOYCNRyysaHh6LFjA1y2BwUF0YZNfX19a1tbP9y6sLiYRYkCYZApQ1A5GHuRTalThdKamUw0kqlTIy4LCwpaHZ1omDT0jH+9+uq+PXtAogGVBgWQnpYGyiA+IQGtGDkFXBYjUkKE6ztliYvcH8Fo0Rh0ln0XrSrdHYkhr01IMhj0lQlTGm97UjFuUWvGbfU+UT99+zUc8PjIWA8eS0VkhTRMjPAuIlcTYIhXFOS9vut0Z8JYvkGdGUwsyqh1+kd3ZtXJle4ivoRP6Nq9RbU1rZ1X6tpq5Up0O4VGq+xQv3eiQCKRjI3wASICnAAs9BcP5Nz582mFRrd+VgqbxTSuPjDJU4AxvDcjbeIg35ZOnUgi5Zp5dJhkoEar2tDLbZZ8MUel6PjmX8/v/26DUCxldbl5QfDV1daCTTZy1KjU1NSUoUPh97Bhw9LS02EeglwGiTN27NhV99238O67YZZqdTo4+B/PP69SEcs0ILeThgyJi4u7ff78RYsWffnllxvWrevr4UqoK9Otg1KZTGrquu8fgPovKCigZpshFVkA1Ux3d3enyjK02urY7dLT06kUBLGQixcufEhWk+orT0NERGBQEM3Igxd/7dVX0RjoH4D6aaivpzY1yCiqrz4uNtZACdQnllGKi284urvPEqZNm0ajUNu3bx/g4t3fz49hSqdaWloc3sJgF86fP0/b5evj6+vASjeMtKuUgnDQ+6GhoT4UOyEwMBCElcn2lubmfnOo/G+RBuiMp554Yv/+/WGhoaAYpk2dGhERkZicbPtWbDvGrpjN71DL3JzTMiwm6HJCmzIs8AaYJm0q/YKkkNcnJvP16iaxd1P8+PrU2fJx9+w7m1WSnxflKV05NFSuVIPmPlJa7yPhR7pLGHrdmm9+yQsYCvo+QMJPIfdBvHcif19RrYTPlfDYMpI0bMmtYrFZVW2KY2U3nQ2NnWqGgPtTTkVpS8ekCB8XAVerN3BZTDch7+ecynFfHhFy2S+NjZGrby5StKu1LgLe+zPSp0T5tSp1Vnwq7RpiOcbxhQkmUyTj1FVUbnju4bO7t4qkMhpvgwn2+2+/HaEkUUZZ/0D7gWmblpYG7CHA33/IkCGLFy++d/lyGCFnz5yBYaNUEoQJKD9RHDk+fmha2sOrV5dXVr73zjsORBTaDiLdm6mTFoiaRCzu/+lTWFTU0txMjduPjIqiajKRWBxt6hzuzWorNHJsbCx1XZ9BOsm3/Pzze+++S6vC7CwQ2SSnTKEtsgB3vJyV9czTTzfU1fVPU1+9epXN4VBt1tiuJW2EgKAgH8q+DBTWUJCf7xzXZteUGRwbOzgmhqqcLpw/X9hvysksYNkW+Pr56U1JA3DNlr7PmSiXy08cP05L9B4ZEWFvWAaDTDNYd+MG1aU3KDqaegDKCEL9BqZJdu/qXGDS0A1Asj/+6KNZWVmzZ8++a9EikEfRpINBZGeAru2IdeeoWjRiKccZJR1urvSDTrU0j2CQtal0dySF/Hd2hreAJW9r5XS2MaRuRYFDf/7hezjg2VExsd6yBrnKVcB7KI1YFD919Mh31TqBb5BKpUzwcfEW84+XNf77WL5UwNUbGBIex1PEr27vPFpaL+ZxYCruK74pNFuUGjab2azUvH4kL9xNHO0pU6FaoAyGh4iXU9s24cujIi5neKC7UqtrUaoj3KWfzR1B+BisMga5xtCuMTjMGEDOiqTsy0dPfPr4iuuXTotkruaNhUpdv/Tii4cPHTK/AsxGX3//5JSUpKSkkODguLi4hXfdteiee+obGp584okbXYkNiNWKpKTAgID58+YFh4ZuWLeuvKysr8ZtW5vBVJACxeHbUGfL+ZosJ4dqghPBWbGxtGNiTFMI9CZbA1zn3nvvpdrTN3WAVgu075GHH+6jcNS5t9/u6upK22msJZ0c961adeTIkX5oatrOe1B7tBKdQqFw0KBBNLvWKUUomOSQM/5z5qxZtMQDf/RXOCTMUweoYbfLAU1972nYvWtXe2srLYPC8BEjHOl9s8ihWLOJRlu8A/zlYiEHOmmoq6v7z5o1Eql09erV6RkZIaGhQ1JSHAgEs89qYbPiXVgapVYocg5vIA1xg1xj0RCHu7R06sZF+G68PTPF17WlU21QK7WJY368Ul5VmO8u4v97cqJerV2UGOwm5Ok7Oz7ccaQlKIGrVWv1himRviqd/tE/Lql1eh6LqTMYgDTw2Kzf8qpr5UouiyngsE+WN6LE1a2dGngEGZ/zS05VQWP7xHBvpbZrbzT5fatS86/DuTVyZadGOyHSf9P8zCEB7lZ8DCwy+WOrZUrUc2sLOUymftemjZ+/8EhzXZVQanHXMkxskEcvv/TStt9/t3SMzMUFzCwYJOEREYkJCatWrUodOvSbb781KiqY1VHR0X4BAUkJCWPHjwddcqUPUqyA0GwD0mA6emQ21JvoC1CLJ4HAAuVNM38ZZLo6WgqB69evOyyyR44ePXnKFI6ps8FAqhNQqw/cd9/6deucnnjf3d39iSefNN+XCze9UVv7j+eeg5FTbM/mT3uhVCpzTb3Trm5u4WZJJmhhp9DUzhqByKmGMH7sWIFQyKKsg+zevbuXVUVsAdqvobW/coRUJqP1HXzu6/X+gvz8zz//nOZmAOo5dtw4B65GrY2JMrlRoyCNE01LWbyDY+AZBnjWzr8SaQCeXl5enpqWNmP69OCQEJhsQNt7uUXCRrjy2dEihl6nE4idwBvIWoXEIkWHxpoDH6z5KC+XjXeMWpocBvNfw2TlBg/7cttu+NOsaL/nJ8bNGkywpUNHjuxu5YqkMmgfFwF3VIjnKwevXqpuAa5gIEMdXQVEE/1ytZLLZpEciF3ULD9f3UIwd6WaSWRcYHZoNO8eLxgR5M7nsAwUsQ7/bFWq6ztUT42KX3vbcB+pqE3VA2Nosbz40sPgY7HFLpzasrINzz+8bd37hMNAKLaS8xGZyzDN3n3nnfVWgxJEIlFkZOTQ1NTg4OC4+HhQYI2NjfWUZPI+Pj4hYWEgHUaNGlV748bZM2cMBoNzh67GTG4K+ixftRUoOjquXr1qdPwSSczc3c03cURERhJleygObXl7e28c2k8+9VTEoEFcMx8vSMzOzs5vvv56+bJlW7ZsUTg1qn/CxIkLFy3ikBt0aXQT+vfggQPLlix56803+6iMU2V5eU11NdU7HR4WJjOLYgFFQk0cBM92vaCgzhkBm9S3hl4GzUeNCgIF3JsSqXY9htb+zEgCIp+7gNZxDg8PW7KhnDhx4uknn4Rm0ZvWV1u+cqXUfn4PdsI10wwNHh4e5olhYKLR4oeaGhsL/1JhDQOaNKDa1i4yWWRUFCgAW+pOORE+Ik4k3wBCTiRxjr8BBHaLxhpvIPZhqnUCHu+VKUP/Mz01lKdXu/p9UskszCe2Nrw9MSHFz82gVW0+lt3pH83WqtR6/RBf13NVTR+dKXQVcrsUvyHYRXiltvVCdbOIy0Z+DqVGd7CEkErtKi26u4zP3ZpXVa9QR7pLtF1Fp5RaHTCGYcFeX9wx8pHMGL2BodDomFYZQ7OaaBsHGANfRJSrPPp/W9c+uiznxCGRREZslLDc0CgQPT09Hag6COJvv/76maefth6UwOfzURwDn8sNCgqiiW+hUAi6E0QVHABWzoULF5zI90GCtHd0GEyrIdySKEjkMKCmWgIeO5rVAAAgAElEQVQ6ZZ4HE1hUKCWFAJKeWb1wm4PYfefddweZBk8YBSVY/7W1tR+uWQNa/Oeff5Y7r+VXr149e84ctmnubeNNoV927dy5cvnyd/79b6d7HXLz8qipGOFzfHy8+WHQ/jAUqZWr4KlynZetwQgUDkltgR0WSk47lzE76HEUCGiLd0wy4MCxq1lKDA9vWl1VdWD//mefeQYYQ0NjI/VI4LjDRoyYN2+eA3cE+7ayspK6cSY0LMycfIhN44eIIukczpW/VD7pgZsRErkZ4Hdaenr/eBfM4S/hcFjaAqVW6sqRt/Y2ETqTNOXBLtczmBLOTcve/Bi1VqdhMmckhg0N8vzqTN7nF1WrdmTtCYvg8bjw13Nnz+9qMAijZAyNCuSiVm/44EQBk9xP0TUKGV5i/q95VXKN1k1ws914HNaxssZ2tVat06Mj4bdcrd1ytTLMTVzU1KEz6FRaXYS7dElKxNyEMGAbyMHAtOw4kWsMrRqGAz4GDpfDEzLK867v3LT2yrF9bC5PJHOxXlSCSODv6bly5UqYciBhQbvX1NRcungRpv39Dz6YkpJi5VxQkINjY4HOt7W10VLcA3z9/Vvb2oCeurm5lZSUoFKEzvE0mC3rcm/FML5KZsI35nWmJig0t4Cp0Qa9d5sDEfnPf//7zttvHzt6VKfX0+Q4+YUe5Ox/P/zw/7ZsWbhwIVGnm+MEifTMs896eXuv/+wzeHGdWdIeaAr4cvu2bTt37Jgzd+6ixYt9nLQPNjs7m7bnM8ZsGQgAdhCojYsXLuip/Ozy5bHjxzu365OTk8MjI0uKilAj6Miw0GvXrpkPAJltVV36Hw4EVKJgmrfefFMmlaLU6CKRCOQGEMa21ta29vbGxkbjOg51TMLYi42Pf/mllxx7VLTbiEoZ47rrfQZZguQcJVsMET906dLixYsxaegtYG6DnpDeomVgI7xFHD5bn9+hdfHgtDXrDb2rbMQk/2tVEzkTZVwmk9F9yUYiNFKpc5VKn5uaPjMu9NOj2S/vOvPGrOEcNlvsGygMimzoVEo5TD6blVPXqjcwhBy28TpcNkuh0Z0obxRRCm0L2Oxr9W1nKptgFhnphZjHOVXZKONzVVrtIA/ZrJigBUnh/jJBu9ogV+usvQKDCGIgQjvtZAwsFlsgYbY1tu/5+tsjW77paGkSiKWEXOhJYKHFTiKxtEAAAg54AEheUHKKjo7Dhw6BzTpp0iTr+sbdw4O2Ce1PIS6TqQUChVwOjMFZgpNlZukS3do3ZbGsI4dScgJJycTExG6PjEtI+O2336hH5uXmtrS09MbDB9301r///e23327+4guVUgl6i2bUElJbr68oL//gvfe2bdt2/wMPDHNGVt1ly5aBaP7vf/5TVlZmflNEHaCDfv2//yPWLJYvnz9/fi/vSDRXXh61IDKXyx1sIQsyNDWQBurz5PRBNBxwpqlTpqz77DPqsNy1c6c5abhVVhkVoNqFIhGMt95fCpWu6HayG7pAV4RsNgy8V157zWGNc4WSoQGNB0ukwbx07bW8PLlc3qd1cJyIAbo8AVOaz+ffcsZwU/DxWUkylkChlUhZPIETaBaLMNMZTSqD1mAtxEGt1QF1iArw/u/CSRmDwqrkWrWeERse8sPCkS5MTZtaixwMHBaTOgMEHNbJisaiZjmPQhrYLGarSrPtWrVSqwd1BtShUwMXV6s0Oi8R/18Tk7+9a8xjo2JdhPwWEOyWdRuLrGDZrDYAsWDZwxhA4QslHCbbcHrHrrWPLN254UNNZ6dQIut2YiN+QJuB9fX18E1GRkbykCHp5G+wJt3c3efMmePh4XHy5MmGhgYHFLlRaLq6u4OUF/L5hgFpcjkGhUKRm5tLtX5gWkVaSGUdO3iw3rTWH5x+zdFsDVSAFbV+w4YRmZlwcVp0pLF/wfwvyM9/4rHHPvrvf51SdDQ9PX3Dpk33LFkiEAqBUDIt7Mdpamr6cM2ap554oqqqqje3Ky8vLyst1VMyNASHhPhYCNlOSEgw2V6o15eWllJjbpyFiSSZpoaq7N+/33xRbyCMeQ6X6xQ/k/FNdd3BWJiNJhlWrFr1/po1DmscuCywc70pZYwy3W9pRHhEhEAgMMm+1dgIA+CvIlUGKGk4derU6ZMnB87z8DmsBFdOAEPPNuhkbhywmHvPG1Q6RqPKQCRdtqp9O9W6Tq0+LjSg1cApbNNVdOgzI/233Dk8RMJrVKjaVRpQ/2qd/k9pxWTm1rVpdQbjNQ2oBjeD8WNORXGzvENNbKCI85bdlzZo8x2ZXy8cszRtkEzAb1XqNDq9FQcDSowNz6ywJx8DogtsDuvysWPrn77/6389XVNcIJK5sC2kdof5Nn7ChMmTJ8Osoy4lgNlk9JbDMcjTANQBppy3t3d0dHRzc7Nj5R+NILLfs9l9lEjglqCkpKSuro6aaygwKKjbap+AwODgYNOsfE7MjR8ZGfnue++9/8EH8YmJqOyW+THIi/7LTz899uijTsnkKBaL73/ggS+/+mrqtGlIJ5lTB7Ql58yZMw8/9FBvak6iPNm0OlWWSGoUCjulFEwBfuasbA1UQF+PGj2aTdFPrS0tR/tl96m9UHZ2qii7P/qTzcBdrubk9IY1VlRUgNanTrSw8HBLE42Iwg4NpY4N6KC/UD7pAUoaUlNTy8rLn3z88V9++aUvCLhjCBSxkqVMkVLPFzJFUg6jd5Uc4Wyw2pvUBpQykmV1TKs1OsLKZxDHX23RRQcHfLVwzIvjE+fFBcX5uHiJiIJSHWotEAK5SqPQaOVqDfAJ+CxXaxWkT8JfIghzFc+PC3pjYtJXC0Z+defof05IGhrkDezCOl1Aj4rqbzWROR9tHDSggAm6wGZePnJ0/TMPbHz+4WvnTvBFYp5QRFVLqGYElTQACZg+c+bSZcu8vLyMOYJAo+zZvRsouQmZI+1mOAz+6ufnBzwD+H5v9vKBKB8IrlpnIffqVVpoHi1JgImpx+HEkGWyqQPPuZURRmRmrlu//p133wW2h7refKhrtNpLFy+CCi920h6HkJCQF196aeOmTcBEOSTMWwB4Q31d3ZNPPdVtFhBbkGPqne52j74Rnt7eYG6yTItQZDm7CAXCjJkzaeti2/oljbrdpIGEyWDoxboJGl00oN5ndRcke/r06YcefNDhDCIojpU60aItuBluevVMK1fBCdl90/t94hMamI8FsnvmrFkRERFffP75xvXrExMTx44fn5CQAPPfuTcCZaNSqYDmEwO2s5POAwwGoYiARCJBZSfFXFa8K6ODwSiU69kubI2aoQS7m+EgHUY3kxO5FA0yLlPIvjlVrByPSkXVdug8pNL7h0drtAwlyDt5Z3OnqrVT3dChBLpAFBcgrwOkxE3A9RDzXQR8D7HAUyzggRJnwSlEzmkr+ZpoT6gkklMZ1AbSKWIDU0Khjop27cUDh0/8/kvBhVN6nZYvEjGZAppTAbrYy9v7ekEBsAG01sgkq9vdsWCBSCh0d3P79ddfi4uL0bI0dNNXX34Jkt3coAS0t7fLZDKQMmWlpY0NDZH215Psazir/K7tuHLlCk0+wiSycnxSUtK+vXupwrSwsLCppcXdqRuXwPaFn2NHj27evDn/2jW4C209gsisUFPz3LPPfrZ+vWcv6tZSAXb/y6++eveiRT/++OOunTupwaF/igKl8uWXXlr7ySfQDnaThpwcWuyI9bLOcXFx1KUfJ2ZroGHo0KGBQUGVFRVo2REe7Ep2dn5+vnWtdgtmBwxUM+Hi2HoBXGrCxImRkZHGMFhiF6hW21Bf39jUVF5WVl5RAeyBGuyC/vr0E098un69+T5JW3qfRhkTrU602Ph48/ghUEG3ZFf234Q0EClodDpPL6/Hn3zy4sWLv/z005m334Z+BdIAxlBYWFhwSIi/v79MIhGJxVwej1Z+AikY6AnoBuAEwAZaWltbAE1NTc3NoF3gY1tbW3tbW2trq7oLYOLQIvKIvAU8AtCXbu7uXp6efv7+Af7+MN88vX2YHr5NQkYbm6nXs1WdjsdIspg3AwUUbIaUw+SxeqAO6BSNTtfSiTYysHxl0iA3KVoyQFsbWOQVDORmCsQeNDqGChpEZev+aRTkqNIz5FoDYhc9ajyg8FyiijWjobrxyrH95/b8XpZ3GZrFnC4YZQRQQ5iiwBhAYh46eLCzs5MoipibC/eKT0iQSKViiWTr1q3Z2dkGcpHyt61b58yda54wB8kXYtFSq42IjGysr8/NzTVWsr8lMPes6uzfvN4bwMinrbPCI4EKsXJKxrBhoE2N677wASZLYX5+ekaG0x8PeEPmyJG///bbpk2bYHLSVDjBG27cePuttz5Ys8aJNwUq+eJLL82cMWP9hg1XLl+mxUiiDnrphRc+37zZrnpF8KhlZWXUtE7e3t5x3e23pDY1qr1nVBuIOnt4eDi3ncHamTZjxqYNGxjk46E9fjt37BhopAGZbbRZI3Bo/sJQnzF9+jALWR1ByFRUVBzYv/+nH3/UaDTGWQkfQDvAkPv4k0/s2rVBEL7Ll6kxsDCJ0tLTrZySmpoKg8Q40eB3bW0tEPR4q2MGk4YeAFYjmPilJSWR4eFAHWBGHT92LC8vr5pMCYxCWkCdy1xcQKODoWksQ8wkJU6HQgH6A6hDR0cHKp9jBFWmU1N+WhphMJiBYdTX1xfk5yPJCxDweYMiIoIjB/kNTnaPjHfxC+RLODotQ6tm6LR2+x6MBr1aZxCwGWKSOhCLAj1dxoAWL3Q62nYHA+WyDpAYaAyNntGhNXTqiGewHsFARLfx2Fw+Q9lhKMzKzjq0O+f4gYaqchaHwxMILU0/5FSA3gFlD6LB3d0dlP2uHTuI8i16/RebN//zhRdCQ0MlEomAxJnTp5FJ+uGaNR9ZKJkIcxV4Bug5Dy8vV4I/aG/V6CWW7U2juogdMc6IDLcdJcXFNTU11G+EIlF5ebmV9T6VWg3zjprXAV7k0qVLfUEa0MXnzps3YsSI999//9TJkzQVDgIdOn3P7t1Tpk517n2TU1JAMXy5efPnn3/ONPVzwDM0NzX9Z82at95+2/YLXsvLA6uD+vBAdi9euGBlSR7ugsJOjYII5AzIt5EjRzq9nSdOnPj5xo3Ge6FwyFX33We0411cXG55JCQwBrVpPjR4WseSqBKCwvJfwZCIIjFu7Ninn34aRrtxAIDEyLp06ejRo2PGjLH9dlVVVQRlpPQ1aC4wWioqKy3tC9Oo1VKZzFiOCx4YxEVOTg4mDb1+OA4HLAPQAcWFhRGgoYODGxobi4uK4AeoYmtrK/QxtDuNB5h/QAd0u9PGumlo5ftOpSon71rW5Ssq5bcuru6+kYPD44dGJKX5R0bJ3GVMFoMkEEge2TofkW5WaInVCj6LISI2Vd5U4fZOaQfoAnJRAEXo1DI6dYR3AdEFi6momCwOj8XlwQRg1JaV5Z05euX4gfK8y0pFB3AFobTnREagMxrq6xNJV3Bzc7Orm5uri8u+fftOnzq1a+fOBXfcERkV5enpOSQlhc/nC/j8I0eOgEy/cOHCju3bZ86aZemyIApB+oAIdmIwtgNDVyIWt5tmku7nEMvcvDyqEx6eRN7e/sxTT1lbYTIb68RuwD4O0fLx9X3v/ffXfvTRTz/8oDMNbofPmzdvHjd+vNMDTaBlVqxcGRkZ+crLL8NoofIGrU536ODBrKys5ORkG69mnqEBuO/DDz1kl7SBK1zNyekL0hAYGDh8xIiTJ06gwYDqfx46dGj27Nk3vREDII5HTu7p6H3mdcSNxDZUJhocGwuWCcwIWtwPiBe7SAMYk9CwVKXT0tLyz+eft65sGKbFuOGbrIsXFy5ciEmDEwA6IGnIELD1wUgCZeTt5ZWamgoqobGhobG5ub62FvRNh0Ih7+hQdXZqtFq1SkXfNEiZz0LqXheDQaVUIoaInEt/eiPI/rTCM1ARNiaLJRBJ4WEKLpzOO3MMlKVnQHBQdHxEYmpwTIJ3UJiQzOKk1TB0GsK/bjt1AJ2tJOpPMgQspoBN1OxmOsQebOQKcGWtgXB1AF9R64l/WqILRDgRj8HmMtRKRl15acHFM3mnj5XmZrU11sOfuAKhyHLxCHPkdCXCcyPh7uYmkUpdZLK9e/e+/8EH69avRwMAiAXINei4gwcPwjdgJqanp3tbzslDrinxkJOJzWb3/6BFLkraly19nEif3rbdbnxg9uA1YpilNLheUADEva/3Pz/y6KMwm378/nuqfwi6r6K8/OTx405PfIQwZuzYN9588x/PP8+g5PlBZt/WX3+1nTRQ97XapdtoTd13BQ9n33bb8WPHqPcCXm4kDbckgwgNjaaFTlD7iBxNXWBjd4zIzAQ6BVaKMe81KgahUChsL4h42SxyCCkXa2scZr0Px+fl5YHIEt+KQrh/N9Jwk3LKZPHx8WAT1NfXNzY2gg0HJDS4Ky4SJeAjcr3p9VoNoZ+7LZPIJHcDg2xCfzOQbiJE+oA9qLXaToWis7Ozrb29pamppqamoaEBLtuTi8IAF+STOwIMBn19RVlN8fWzf2wVu7h6BYaFxiaGxScHDIp19w1ABILwQGgIl6ihhxyIpG2qJxYs5FoGj8Xgs+E3k8O6GY1IMh1HOARKMMXsingAiqDWG9Q64oOOaImbNII6e+EFOVwmh0usispbFGV5RUXZZwuzz1bkX21vbIC/cvkCc65AKz9jvvkeviksLKQ65fwDAqQymUgoBHb4+28E5syZgzyKcAybxRKKxTu3b1e0t3/w/vvvvPee9Te9hdOPz+fLZDJabBSK2GD1SzgkzBRaaJ5dwpTaR8DX869dS01L6+tnXr16NcjrixcuUHkDtOG+ffv6iDQARo4a9cCDD376ySe0tz518iS8uMyGzN8gJYBXmQ9ve5uaCDu9fh0kj6szcpLSkJaW5uvrW1tb+2d2yOxs4Dpoi8dAyNNw48YNWrUqYt25z0oZGzFz9uxTp05RewFUTFVV1SCbI6mvZGd324B2tSocXFdXV1paaiklFCYNDgLMxwASREEdubydhFKhUGtA+4PS1+q7gn269f6Zs3s0TGm5AlGBMrgaSI2rOTmHDx+mLVhaMhpAu3L5fC6ZQV2rVlfkXynJuXD0V67Yxc0nOCwwKjYoOiEgcrCHX6BQwgdjHQgE/Oi1Fp0QRv2t0hO+BxbTwGYSXgcuiwm/4TOb+ScJMBmC3a1QGIMitXriR6M3aMjPekNX+CTT+EYsNpcIaYSH1GsZHe2qG6XlldfzSi6fr8jPrasoUSo64M9cHt/SMgS0iZu7OxB54HaNDQ35+fllpaVMMvaHOk/YTObOHTuoK3lg0SYkJgJvgD9/vmlTenq6v78/6vr4hAQ2hwNtvXPnzpMnT/72669zHMoS3z8wD4Qm4mvIGI5+uDtIverqaqdkSQKWAxZwP5AGwKOPPXbv0qXUeQqvcOnSpT51dSxavHjP7t1FXemW0cgE8QKsa4QNJZILCgqUZgkGHACSafkFBRnOyIlpzmKnTp369ddfU7t19x9/INJwCxfyjABCQzPNocdd+r7eUGxMDExVhUJhDC6Blqm2mTSAbXn9+vXeTzTk37py5QomDX0F6FcZCeM32i7oySBJ2voxdAmXy+VY8FQTMbSk6Q+nE9soyBVxGEYSsTg4KEir0RwmV9MtWdJotLFMNSLoVB5byBMI4a+qzo7iKxcLs87C8WIXdzdff7+wQQERg4FAeAYES909BWIOmi+IRiA/hEm5oy72oDUwNFrSvUFukUC8gYXYA0EdmIhDwJ/0jJvRFHryAYEZ6NAP4Qq76YQmdzAwOSxi8YPNYXC4N7mFRs1obahvrKmqLsyrLMirKc5vqK6QtxD5D9gcLpfHE/UUskDUZ5JKR48eDeQLniRz5MiSkhKgX2VkChTjq0GrHiBjsqgVH6CnomNi5vF4QBG+3Lz5ueefR65++H2z1CyTuWvHjo/Wrk1OSQkNDR2YQxTkHU0Iykn0D2lABfcMpuX7bIwJp+2BhH9e7jO3OQ2RkZHE6vvx41R3cXNzc3lZWVxfxojNX7DgHUrkI0Fn2ez8a9dsIQ0g6KFtqd4RNjmhbGpqvZ5WYjErK6svSANgyrRpQBqo4ZCHDh584IEHRGKxq6vrLXc21N64QRMg7h4e/ZBZ2cvb29fPr7SkhCrhUbi9LQDKSA1o6M1EA0DvD/ywhr8qaejmTUg495qdnZ3AJ44eO0YTAYguAHkfHBMTPXiwh7s7DLiDBw4UFhaaU05yeZvDFt58No2qs6Yov+IasSebxxdI3DzcfPy9AkP9wqO8AoPhs6uXL5EBScBGywEGfddv0PR6cl3jT8cBQ2MgftBSBSIwFhwW5P+IhCdMDpvkCiygNTC+CY6iUujUSlV7Y11zXXV9ZUV9WdGN8uKmG5Ut9XVqJbEJikvqb6HEDm2nJwsKlBQXjxk9WkeG4IGyDA4OPnH8OFAHfVf5IrQ5dteuXbR6LdBooD/mzJlz4MCB48ePG+OSQJSDbYSY2u7du//12msbNm4cCHaSOdzc3GgCAt60rbXVz0JqYecCrHOTlHNsNijjiZMmId0Go0hIZh+BD8ReCdN5dPTwYdRHxicH89dGX33vMSIzE0gDzUIo62PSkJ6ayqLsNUWvDYrElnNp1T2ILSHz56enpfFMazaau51AvGzbtg1Op3o4cnNz++gdQ0JCgI6cPnUK3U5Pdv3JU6cmTpzI7F2eut4DhmVpaSlNeIYEB/fDrVE2OWpfM80CLKz3PtVchM9gKY0dPx4mV49y6dCBAzt27NBR+DEQ0IEf1vD3IQ19ASEJYhpTYmthWIDAHT58eHJysoeHB9onxuPxYIgUFxd3SxpMU/PyCGOdLyBlhF7e0tRSX1uUfR7+weZyRVIXoVTm5uXr7hfg4uULBMLF01vm4SWUyHhCIV8g4gv5LM5NJwGjp7A29NQ3f+sZaqVW0S5Xd3YoFB3y5qb2xhvN9bWt9fUtNZVN9TXy1hbQaRq1klydYHG5PDKlo9T6fKP6WmjGCjTUlZycpcuW3ZSSCgXwd1A8fv7+v/32W4dcbuQNv/z887x588wjjyIiI3VabXlFBdU7DZcFrjaXNOZ2//HHJx9//Njjjw/AwePp5cUw3QgAmruysjLaQpFJ6xYJdYtQjyIe6R5ad0yfPn38hAm23M7d3f3I4cNU/gdc53pBwdDU1H5ot7CwMNokYpIL3n1rbvr4BAYEADX5MwaeDFbo8cSW5ubr168bTOXDXXfdFRAQYJNZolRepWxOIfhZfn7frcVMnzHjNGX9Hhp2544dQBpuuZuhuooArZR8pNXsWE4El6bdmcwOm0tyZ2dl0R57zty5w4YPt+VcAZ+/fft2au83NTTAcLI9AheThoEImFQgLhEZRKlJwWLLzMwEOxK0IHwPvAGErFgi8fD0FAiFMNqoe9wZZAhnSGgoiCT4q46sBXwtNxeMDDJ7BIvNYbE5XOOgUSkVyo72hqpy/QUi0gH+RP5wBBIp6G+hWMoXSQRisUAsEYplHB5PQPgkhN0GcGg1mk55m06tVira4KnUnQqVokMpb1e0tyrk7UTIhkYN/xHLExwuk8jlzAbWwrF58xWRyonLdSdz0SiVSpCe6H2NEh9e8NSJE4WFhZGRkQxy7zJ88PHxcZHJXFxcgCiAUEZVZBobGqCd71iwwPwuUYMH8yhZ+qn+BpTu6eeffkpKTh47duxAGzkBZjUz4S1K7C9Ls2nTphPHj+u7zBHopVGjRi1fscLKKcTGcYrdhrhdeESEjXcMDg4GKxn6lDqSL1++3CNpaGxsRNUjjWwDlJ+9ZpOXlxdfIKDenWF1tyqoWDDOjOGliMHT3Dw9AkaUl7d3eXk59Usg1z2eWFRUBIyK2tTAiW3PYhkeFoayyBhpN1wtPy8v1WpqIIcxbNgweLb6+nr0wCCOzp87B9PQ1c7mcjryTFfTUHK/qP4iDd36mG05rLGpiVpygqCMbHZgUJCtvR8RAYpD3t5u7H2wPPNyczFp+AsDhOBnn36KbDuUt3/S5MlBQUEwpEA4hoeHBwYGirpkIgqGoIppf39/4BegKYE3IM8nUacxLa1xzJgD+/dnZ2fTLSpyIYPB/pP3Grp8BYq2FnlLk4Gs3XZzz4TNtkGXDCeNIDIHO7FQwWHzOSK+o25JuFJEZOTcefNEAoGOXGsAYVdaVpZ16RKyGG7mhGYyt/3+OzXxM2iRuIQEkUTC5/N/+O672ro65KoBDnHbnDndbseHBm9vbTW3sAfHxNx+++2tra2vvPzyd99/70Dy1z4FyA5zt1Ph9ev2XgeIV1FhodGHCWKl24SYVFy7do3qaYd28/H1tdH2ZZAFdYKCg6k3ZdjmNl/z/vvnzp0zvjWMtClTp5qn/bYOGBhCoVClUtEMOEvH7/7jj40bNlD9w76+vus3brQ3GSiQWqYZyevxrCs5OSwm09jNLFJK8K0uTNDUhkQqlYNd26U2oNEuX7nSR6QBCNyUKVO+//57asD4H7t22eiC6jucOXPGJBSdwYBmGdxfOSvNw4+AhtpyYmFBgbzLY4rGHswyS3WqzAF6IToq6tKlS9SJBiL0rrvvxqThr4p333kH1XeHETxp4sTUtDRQ2yDOwsLDQ0JCaOHxV65cQRExLBLjxo8Hi5DH5SpVKhhVYFxLxGIBn9+pVEplsjvvvFMgFJ45fdp62C2zaxGC3fvCmvYD5Jd5qE4XuWHPmD7d3c0NhruExwMFJZVIAgIDhwwZcvXq1b1796LVB8Du3bvBLHalREETVm94OJHlkc//4osv6kjeUF1dDWfNnDmz28fodhMaERcZG3vv8uVajeaVl176dN0624V1PwBkBwgjqhnqQIZ5OL2ystK4LQi1nn9P6p9WcgJGI8gmroWyot2Ouri4OGq9KOjf3KtXoU/FVgPTeDC8ST5t5DdXu/Jw9BJW/OdGn5/x4QsKCmpv3EPTXTkAAB5gSURBVAgNC+v9+O/xmKu0zFdMZqw90e8wL8CouJydraO8aZ/WLpo6bdp3331HDYfctWtXzODBzl2hsCtIor29/eTJkyZR5CxWfEICyMx+EnRmwQc2Pv+lrCxqQAOxpBIRYVeIVUxcHLVQGUw0YPwDPKyBxcCwgG+++urkiRMwIGJiYh586KH0jAxQ/27u7sNHjIiOjjaX+wf370eCRubqumz58okTJ+p1OoFIBKM/c+TI1NRUsIxDw8NBzw1NTYWxcueCBWCUsPqriBEti3aPjoTJU6ZMmDgRJLJ5MDD809XNDaa0l5fXMMCIEcOGD0/LyIiKigoOChqRmbly5Uqw+1EVA4VcTq2BZARyw9yzdKmHhwdKAf75pk0KGxzCtOeMjY1ddf/9oMw+dGqRgt4Dmi4sLIyWqgEYkl2V9AqLitpM00rC5x5NGVpoHpwTa2cUIQxa2k2bmpquFxZaPyskNNRAAbCHstJSe4uOoh1MJozBLKqU5tFBzioEGHIw8K7b79Ex90i795QvAYR7Tk6O3rR6hb32cYxpwUMU1tDSi0qtPfo2QP4Y+RA0V2lJye69e52Vc9MY9WX7KQcPHGhvazMxTpjM0fbkZOwtJXV0w2SuWSoUe8N1E8wmGoiIEtsicDFpGFg4fvTohvXrwXK97bbbFi1eLBaJYGAlJyenDB3abYxSVVXVqVOniBVNP7+VK1ZEhIer1OromJiMjAxQnzQLmHAX+/iAlh05ahSzuynXLZNgWt3Jg1Yeuj2A1QV4cniSbq9vTgva2ttnzJjx4IMPjh8/HtWTNbkmkymTSmGGiMkgYZA4QI3BAo5PJJCUnLz4nnuAFhC+CgZj+/bt3doxHp6eY8eOXbJkCTwYkVOlrm67/UV74cHALF6+fHlNbe1vW7cOqFEE7UDTB9AgR+wpvnz+3Dnk7zH2C6ilCKvLEyB0yijrrMh8sTenfXRUFDV5CXryHvNJh5iuyKB8Vpe7TUxpGQ319aCMadcJsrxODMxVJpOZVFeHdjt/3q6bajSayooKvemCSI/7XK6T2p3aOxKp1N6V+MSkJFp5TKCJRU4qC94tiGLZpvNx3549Tqym1m06VEsAgvjD999TQ4ZZZFqnUX2QTtu5IKJP8vNpc/PmnnCbERkZyeVyaRPtip1TBpOGW4+8vLznnntucEzM0888A1pfpVSC+AB7GmUZ6hZbSXUVFBx87/LlLi4uMA6GZWTQDE26T4ysC0Atl4xselC6yUOG0A9mscLDwu66+24uj2d+TTgRBuuYMWPgvuaEIDo6ev78+Y8+9tjDq1c/9thjCxYsABOKehhMUTYRCMmiSq5zZ850KBRhERFTp069Z8kS5HIwjuzW1lZLW6iBAQwePDhj2LBF99wjIdnA9YICSx5XeJIJkyYBLUOGzo8//CC3OW6ZKqTAMl68eDF03MWLFwfOQEpLTaUt7sA/9+3bZ6NDBZruyJEj1CugOLswq6ShuKgIlXg1jg3okVA7d6+hKrImI81guNJTtoZBgwbRvFkon6NdtyaiBKgMgMggwgmy/PweHh7wtCa5Rw2GUydP2hjLdpP0V1RU19TQbL4eQ0fhUamUDh6bCGCy06keNWgQVW0grdmn9T5GjhxJlQBExTsyM54zbXebFzu+++abyspKnWmGm7Hjx3s4qSR636GATK/+59oEGRsRQQZ92w5fX18Y2yZC22C4MJCEGCYNPeP69euPPPzwHQsWvPjyy2BDa3W6xORksAasxFXV19f/9MMPYAyB3oL5D/oVVGaPskOlUu3ft0/fVfMCpkpwcPD9Dzxw96JF8+bNA5piHEmgz318fZcsXQpGjHl+KjhsaGoq6HUwIJbdey+fstcA/WnFihXJKSmurq5isdjFzS01NXXpsmVoUcDo2wBm4OrmZrQPUNTh6VOnwIiPiYsbMXw43N3Hx4fd9UhKpbKVLDBjCXDwhAkTgKwwyLXtXbt2WToSmmv6jBm3z58PgqOhoWHLli0O9BrcAsjW5MmTgTRUVVUNkLEEVIbaj4yuzfHbbHOoHDt2rMR0Ey9cKj093XroRnZ2Nk3pAnm1NzMxcDggzSZPTubGt07p/AMDQWtSzwLb68SxY3b1yH7TxSy4WijJYKycMmTIEFrC8sbGRrvIytFjx9hdZXJRo9ninrliugyEYqXtHSTAAulqg8mEK/fdsAQ5ADOFesdbteXywoULm7/4gurkQNl477jjjoGvKXLz8kwmGkkZ7d0rS0RvxMfTKG8eGT+EScNfA6WlpW++8cbqRx8F5Q09J5ZIho8Y0WPY+dq1a4ExrCYr7nh7e4OetiXobM/u3Tdu3EDFCGDQjB83buWqVXAvIBPwG7Q1GkmEUudw5t1+O0x1LVlfgzbmQCXcdttt8L1YJIKnnTplCqvrRAMp+PRkhdmYmJjUtLSMjIzBsbFgAc++7TZUjIPY56lSKVWqhx56CC0oGMX9H7t2FRcXA72IS0gYPnz4osWLPb28kGlFpByoqLD+gjB/5t9xRyq5T+/I4cNtlss1eXp63jF/Pjw5XBnoV5PNmVVoei4uPh5udzUnp7V/S0NZAmj3ydAdpr4f6PHNn3/eY+IBhUKx7tNPzbOb9xjofvXqVZomcywtEqEyTd3mQI7LysqsS8ARI0fSVmQ0avUna9faeFMYJ7m5uTQtkp6RYT30Z+SoUcTGRVNL9/ONG20MpwB78ddff6WRM1AA1nepdHR05F+7RnNOJCQkOOAnI/KVmZKe3D5WG1OnT2fYGa7odJw/e/bFf/6TVg8djKIZs2ZF99e+id5wpqxLl2gTzd61CeNE6yZ+yP6gHEwabgGKioq+/PLLJ595ZubMmceOHg0NDQVN2WMU66VLl4qLil57/XV5e7u/r2+yqdFjRU59vmkT0r5wiyXLloF20ep0ri4uaenpMbGxoeHhzC75NWb06MCAAF8/P4lUSp1j8CeRRAJ8Aj5HRkQkp6TAqF2wcCHYLkjIwsVdXFzCIyKALgSHhCBnA2houPicuXPhe6MsBrYE5y67916gIIg3oLCyX37+Gc0HOH30mDHLli2Di6CzrtrgQXVzc7t3xQoOhwMq8Lhpmj+6m87ff/GSJQmJiZ0KxddffeVYDwoEAhSMWVFR4Vx3q8OYNXs2zfkMKgH0wSsvv2x9W9c7//53eXk5VX1Cs4Mhm2a1BgSMq4KCApoMcow0gP6jVYuFB8jLy7N+FhH/a1rJBUb1kSNHvvv22x7vCKTkw//8h2mqUKEF4Jo9it2o6GjqOjrhbGho+Ndrr9lSjvyD995r6EpdcPNNmcwJPeVJLC0pqaurozonCE+DQ6kFYNjTdFgzmTOq74YlDKTEpCSnRGFbiqOycopcLv/qq6+eeuopIPc6U64GIu7+Vav6Wwt25761fgq8QiElqRcackmm/WgjBg8ebB4/lNVfidsxaXAcJSUlJ44fB2t7UETE6ZMnQQwNJku5WIdSqdyxbdurr7yi6uwEfQ9q28bbbdq4samxEQZKYGDg/fffHzVoEFwK+HVqejranYgCemHsenh6Dh8xgsvjgemTZ+oQg+EF/AYUc0BAQGiXVQRaH+z7m14KFsvdza3bBAZeXl7E/sauel2VFRVSmQxIEvCGiMhItAwB8no36Q5Bp3h7e48dP37R4sVoBeRSVla71RUKhCFDhkybPh0ee8+ePdaPjIiIWLlqlbuHBzCVMtM0O7ZDJBIFBAW59X2dGxvh7+8PlhMtLgz0KFCuZ55+urS42PyU8rKy5555Zv++fbRij/D73uXLrYsz4K+tLS20bDOO7XcPCQ11M419gav1uBsQOnHM2LG0RTQYYB+vXbt+3TorPCnn8uUnHnuM2H9L0SLQbsOGD4/paSbCQ9555520L6GRz5058/hjjxV318gILS0tQCz2mTY1wcXF4lldZaMtITs7mxbQAH1tezIMmtpAKZ6oauNyH0fDzZo1yynXUZJ56mjGujllV6vV0LlZWVkb1q1bvmwZ/IZvaPE6gGeefdbT27ufJ6mrqbhAAbzWTykrK6unEE1UkzPS/sUpBhkJR4sf6uttt70EztNAoLa2tqqiYuFdd4FdAoZaYnKyjWn2wYSaMnWqt69vbk5Ous1lZmDm/PLTTyDN4xMS5s6dizY+JA8ZQt3ipUPVvQ2G8RMmiCUSlHv47NmzxslJnJKcnJiQAGpysKlbbMbMmd9//z1YWnw+30rFl8yRIz/95BM07oGylBQXZwwblp6RAd9s3LChqqoKPmjU6m3btt13331Gz8HUadNA1H77zTftra0XL1wYY0MqRmjYP3btunjxYnV1tfXF6aFDh8K9Xn/99fWfffYWpYCQXZBKpdCkKpVqgNSkWLZs2YF9+1opCRuQVAW5sGL58jHjxmVkZPj4+oJqvVFbe/78+SOHD3dSEg8Yu3tEZubYceOs3yvv2jUUYGu0mENDQ/2strmVZgSeeoGyDQG5zWGOWF99u/+BB06dOqXrKi/C6AqR+earr/bu3Tt5yhToZSCyaIo1NDQUFxYeOnz44IEDZOoyE88KnPXw6tW2PC0My61bt+bl5lLVFfCGrEuXVq1YAZN05KhR8DpoOgDZLSoqglc7sH9/Q309bTUE7vrgQw959BQFQlPqcCJMQ9uTYZjws5AQoBs11dV/JrEmk/wsWbq074YlNIiLiwvM5V5WaNTQ9scaDBqt9h/PPcfjE+CRDQKTsUOhaG5qamtrQzuxu8trx753xYpbkmaKb7bdtMdQZZgIYFkZy6rBWAXd7+tQWRkejxcbFwc6iDpfCvLzgbjYm6AMk4b+g1AgGDl6tFwuh54D1m9jjiAgmy4yGWjZrIsXk1NSbPT1wXD891tvsTkcmLSTJk1Sk7kfEhISaIkfwF6EQQmiBMxEUNWenp6VlZWFXTVYiZB4mWwKGb4QZxpHg8Q9/OmnH36AeWilag5YRaBOKisqkKiC+cwgk5QNHzFCqVJ9+vHHbeTm6e3bti1atMi4TAPM5vb580HAAWHas2ePLaQhODh44qRJ+/buPX78+ILuckVTMX7ixOKSEiAlYMklJSU51qHwtLS9/rcQ0HdPPPXUa6+8QqvMDrpK0dm5Fxpx926kt9CmWXO7DdgPXOTZ557r8V45NE3GYgHddHjpGoYl8EKqPqipqSkvK7MeIg405ZFHHvnPmjXUxMBE2gadDoYNUIcvv/gCmC6aZaBLQOvAeKa9NWIMTz3zTKRt4ehw/HPPP3//ypVEcnGKQiIaWaHY9vvvW3/9FUYF2qQDOgxoGas77QVNDWN1zty5Pc7iq1ev0s51IKABAahGTExMLRnhZGyuPi1CgaTEpMmT/2/Llt6WdTYfXQZDRUUFbdQZk9uaOyFQXy9ZtmyF1eTofQd6AW6DQdHRAc9pxeowp4yxNnimLQFk+KEDB6jsvKmpCUysCJtTv/cn8PIEAZmLSweJ8PBwGxkDSA2wHYcNHw7UITwy0vYcfx+8/z6o/7vuvnvq1KkgvEDCpqWlmZ/e3NysNxgyMzMlYjEaOmCDGii5gadNmyaRSsPCw7sVKxMmTAAZrdNqrVAZUFGBAQHGuQ0PY5QmcPrCu+5C86e5sZEWjuDj47P03nuDgoIOHzrUUFdnky909myYhNQySFZ4NzTOkJSUjz78sDd96qxkNU7B5MmTV6xcSdvXelOVarXINY3oAq3MLlJjwOTefuedHisaAE+6XlBgMM1wkNCL4pBxcXG0fAmoCFmPJwKtBHbIMXtfuBrSGTB9WkioyXyp3RYXXrFq1Zw5c2x/WqAXr7/5Jsxf2mIQamT4H0xwdFNiSyr5Jc09Dsp79JgxL7z4Yo/3Ki4ubqivp+3RT3RoSRuBpnKQ2ii2M1uDvQF9U6dN01KWRZwI5DSiAvEz82osXA4H7J9/vPCC0Z3Z/3BzdTUZ56T4VXfJw26cKxpNbm6uvndpnaiIj4ujxQ/BzCm0JwscJg23ACBoQBfaPn9gfg4aNAhMAVDqtpcMBotn186d/3zxxfSMDBBhMbGxliIngFjIXF2jo6K8fHyQT/X4sWOGrkcFEQMCHZXC6vZ0IvtkaCgIR7ZVF72bu7txjwY1VB5sMjC2Jk+dSnxP1o8wF9APPvwwPMmvtuVTAnkKj5qdlVVXW9vzHHZze/SxxxoaG3fs2PG3GWDLV6x48KGHiPJg3eW9oRrlNDUG/fjftWttCcyurqqqrKrSUzQZEQXZCwMoKjoadDBtUuTYthvw0ccfv++BB2CEAOkxNzpR6kaTUtRdz4xI0osvvrh8+XJ7H3hEZub7a9b4+/vTgk+RJrB0U6OPZ8Gdd77x5pu2rGpdNg1osCV/Rg+kISZGb6Y2suxc2LY9pRICDCqYmN3aFfo+24TJ7FqMgHaG0TVp8uT1GzZ0mz++3+Dl6UkLRQTB3mR5601paWk1pSYnQRnJxMEOPwDIRuMeeONMyHFSCnZMGvoKtrsKjGoVBBNQTtuTkGRnZ2/auHHtJ59ERESA7gRjOtSCygc+AQeMGzcOODgKY6yrq7tw/jwa2TDTpkydClPOepHlYSNGEKPZ6iYCI92Bq9Eyv7q6ui5dujQgMNBAln81p70jR45ctGgRcCAbUxVNnjIFJMXFS5dsOTg6OnrFihX/t2WL3IZYy78KFi1evPbjj+MTEpDEtOQEMopUGJNgsn+2fr2Nu/9ByiDjnqxKxobxKXNx8e9FHS9PT8+wsDC4DrsLcPFz587ZsiUBcM+SJZ989hnacwuvYyljKfKyoFcmalxNm7bpiy+mzZjh2DOnDB26fuPGefPmwQxFF2RZSKWKMpSgY4BkA9t45NFHbTQbjh49yqaAx+NFDRrUG+dWCLQznM/lwtOgH2iOkydOWDlFo1ZTnwF6XWJ/wYLZt92GWv7mTbvAsNl8AqHEQeh6cup1jOCguwAhYzKFQmFScvKq++778uuvX371VUti0C6vBu0V7Fpz8fbxQcGn7K4rMMhiVFYkOUqjh+4Inz3c3YPtzJ9GhVQqBd6AhiK6JoxDW/yytwQ4pqFXg9X2CrwNdXXffPXVW2+95enlBQbEsGHDUFFpS24GXz8/sBGBkaBggrNnzxIBRwYDkS5t3DgiC15wsPX1TrjFD999Z31fH1F/iAxSE3atMVMBCmPpsmVvvP46jOa9+/aZl7e/a9Gi7MuXd+/eDTK6xxbIzMzcuG4dyMGpU6fa0mIzZs7Mycn55Zdf7rXf4hywAJW2bsOG48eP7/njj0tZWU0NDcyuFFtG5zLIoKDgYDCap02ZEmqP8arVaBISElhk6m4gHBKJJCIyUmRPFQBzTJs+HYQXLX9oW2urjVwZDNkPP/oIBvzhQ4fOnz9fe+OGXC43X7OQSKWBAQHp6enjJ07s/R59d3f3J556asHChYcOHYLxVl5W1tDQwDbb0CHg8z29vYcMGTJ6zJiR9iQtho4aOWpUSHBwQ2OjSqlkkAmabifzmDkMkCSL7r67uqbmz6K0BoOLm5uVsFMwJ4ju7mpMeCPbizIbMWbMmKs5OcD7iSz1ZIiosrOTCOuz+VLubm5TpkwRCIXtZGIJJvkkrZT4SvgAQgy6GPoFpF9ISEh4eLi387ZIgBicMWsWso5g5Le1tGi0Whd79k/BYL5tzpzqykoun09UvCS7WGB14sDAhhGFPLUGvT4qOtqxGNg/J9q0aXAdIjcguuYAFmLMW5UL7H8KHXL5999/D7LJ39//woULKSkp1lc09u/bV1ZWFhMTkzxkCBL6Tz/55KlTp6CzQDytXLkSBlZGRoZ1qwgk+10LFz740EMzLe+t2rB+/ddffqk3GAICAv7xwgspZltGtVrt888/f/bUKSDjP/z0k/nEuHD+/A8//vjaa6/1mNACrIH58+ap1Oqtv/1mY+DIjZqajz/5ZNXKlSG9s0UGJlpaWkqLi0FPgEpraW4G3ubq6krkBwwKAsH6t5wIN6qra+vrW1tbQUuxyNUTkNESkcjDy8vPochzW9Dc3FxdXQ0tDFqNRaZ6BDoFmsbDzc0vIMBelz4Gxv84sKehzwG2wpUrV4CM+/r5Xc7KGmqh5BWNOyeRiasRY6itrb148SJK4AiWn5BMYdSjH1Xm4hIZGdlKlvbugTkymWAEdPtUHA5n2dKlZ06dArF75fJlMJRpBwxNTc3JyTl39myPuwFBOqdnZOzYvh34kI1FfaDFpk2devDgwb+Ts8EIoAjJKSnJ/0tzwdff39eh/Z+9NOJt9whiYGBYB45p6HOoVKrowYODQ0KKiopi4uJs2UMVHx/vCmZQl+11/NgxtVoNqn1ISkpYaKiXt7e7baUE4DpNPWbSJQ0+Dw8PoYWojviEhHHjx3O5XEtrbDNnzqysrLQlsiExMZHDZufaE+AzIjMTWqxPU/FjYGBgYGDSMFAgkUjA0KmpqQkNDRXbFqkklkhAhbt1MYN9e/eCaufxeGPHj+fzeLYXUhsUHW09IKi9vZ1JLgSCTW9lDe+uu+/WaDTHjx/v9moenp7xcXHXbNggFB0VpdXpruXn2956QJXGjhtXVVFhV9FCDAwMDAxMGv6qAIVHmPI2p/fS6XSgidECRHFxMbHJTa8n4h/d3YNCQmzf6BFKRuRaOYBwD5Cb3Hx8fASW4wxiYmKGpqbW1tbmW9D3CUlJLL2+R2dDQFAQl88vKiy0q/VQsYzS0lI8kDAwMDAwafj7A+iCXdux2Gy2kRkc2L+fxeF4+fikpaWJxWK7QuS8vLxcXFys6HLkaQAuQpAGq1xk7ty5bBbrzJkzlh44PDKyx6BaaIfIiIgbNTXtdm6kJGrOisU4aBcDAwMDkwYMay6H/fv26bXaiZMmiUSicDuzigLJ8PPzk1uusYvKVfv7+7u7u1v3SRDliTmcs6dPWzpAKpUabNgbHRIc3NzcbG/pang2Nw8PleUcbRgYGBgYmDT8ryPr0qXqqqrI6OjoqChPEvZegdDlFgx0tVrd2NSkNxiCgoNlLi7WryORSIYPH56bm2tJ3zOZTLHl4lh/koaQEI1Waz17RLcAztQX+W4xMDAwMDBp+Jvg999/1+n1kydN4vF44Q4VLwkOCbEUC6lQKIgSf1otKHKJDfp+9JgxGo2mtKTE0gG2KPWAwECxSGRjSkHaxW3M7oCBgYGBgUnD/xyam5sPHDgwYuRIPz+/wMBAx1L7+fr6ii2c2NjYqFQqia3zcIwN2zoSEhKAf1y/fr03L+Xq6urm5jZAilZjYGBgYGDS8DfBnj17BHw+4Wbg83uTEpFrIQaz9sYNIoAxPNzdtp0dwF18fHzs2jBpDhdX18yRIzksPPAwMDAwMGnAcB527tgx7/bbRWJxWFhYb5LdWiIE1TU1THJjgktPAQ03xwqLFRUVVVpc3JuXAo4ybdo0nT3lZDAwMDAwMGnAsIbz588LBIIRmZlcLte/bzLvloD6ZzKDAgNdbC7tHRoW1tzS0ps8S8A8ZC4uOK0vBgYGxl8ReGl5gGL//v23zZmj02gG2Zz/0V4UFRVFREZ6+fjIbPM0MMhsUZ0KRXtbm+2Jqszh6+uLqwRhYGBgYE8DhnNQWVnJ5/ESExK4PJ6VCtq9gUqlqqutjYuNdXV1tT0s0cfXF34ryXLADgMzBgwMDAxMGjCchsvZ2ePGj1d0dDi2zdIWVFVV8Xi86MGDZTavTTDIrA8SkaiXpAEDAwMDA5MGDOegvb1dLJEEBwdzeDxbSmI6htLSUmAk/v7+rq6utp8lAkgkavuzLGBgYGBgYNKA4XwoOjri4+IUCkVAQEDf3aW6ujoxKUksFtsVncBkMgUCgU6nw92EgYGB8T8IHAg54ODj69vZ2anV63sTbGgder2ey+GEhoVJ7VmbYJC1MFxdXaU2pI/EwMDAwPj7gYkrB2JgYGBgYGDYArw8gYGBgYGBgYFJAwYGBgYGBgYmDRgYGBgYGBiYNGBgYGBgYGBg0oCBgYGBgYGBSQMGBgYGBgYGJg0YGBgYGBgYGJg0YGBgYGBgYGDSgIGBgYGBgYFJAwYGBgYGBgYmDRgYGBgYGBiYNGBgYGBgYGBg0oCBgYGBgYGBSQMGBgYGBgYGBiYNGBgYGBgYGJg0YGBgYGBgYGDSgIGBgYGBgYFJAwYGBgYGBgYmDRgYGBgYGBiYNGBgYGBgYGBg0oCBgYGBgYGBgUkDBgYGBgYGBiYNGBgYGBgYGJg0YGBgYGBgYGDSgIGBgYGBgYFJAwYGBgYGBgYmDRgYGBgYGBiYNGBgYGBgYGBgYNKAgYGBgYGBgUkDBgYGBgYGBiYNGBgYGBgYGJg0YGBgYGBgYGDSgIGBgYGBgYFJAwYGBgYGBgYmDRgYGBgYGBgYmDRgYGBgYGBgYNKAgYGBgYGBgUkDBgYGBgYGBiYNGBgYGBgYGJg0YGBgYGBgYGDSgIGBgYGBgfE/gP8HFB5I6vDmz+YAAAAASUVORK5CYII=;" vertex="1" parent="1">
          <mxGeometry x="230" y="678.76" width="140" height="40" as="geometry" />
        </mxCell>
      </root>
    </mxGraphModel>
  </diagram>
</mxfile>
